<?xml version="1.0" encoding="UTF-8"?>
<mxfile host="app.diagrams.net" agent="Mozilla/5.0 (Windows NT 10.0; Win64; x64) AppleWebKit/537.36 (KHTML, like Gecko) Chrome/136.0.0.0 Safari/537.36 Edg/136.0.0.0" version="27.0.9">
  <diagram name="Page-1" id="iX6ZSwjm8A8_LOTG4HTf">
    <mxGraphModel dx="2831" dy="1831" grid="1" gridSize="10" guides="1" tooltips="1" connect="1" arrows="1" fold="1" page="1" pageScale="1" pageWidth="850" pageHeight="1100" math="0" shadow="0">
      <root>
        <mxCell id="0" />
        <mxCell id="1" parent="0" />
        <mxCell id="Pc-rXo_lRMbQFWNjcUTP-135" value="" style="rounded=0;whiteSpace=wrap;html=1;" vertex="1" parent="1">
          <mxGeometry x="-1180" y="450" width="1700" height="570" as="geometry" />
        </mxCell>
        <mxCell id="Pc-rXo_lRMbQFWNjcUTP-134" value="" style="rounded=0;whiteSpace=wrap;html=1;" vertex="1" parent="1">
          <mxGeometry x="-1170" y="-250" width="1680" height="620" as="geometry" />
        </mxCell>
        <mxCell id="Pc-rXo_lRMbQFWNjcUTP-132" value="" style="rounded=0;whiteSpace=wrap;html=1;" vertex="1" parent="1">
          <mxGeometry x="-1150" y="-940" width="1660" height="630" as="geometry" />
        </mxCell>
        <UserObject label="" plantUmlData="{&quot;data&quot;:&quot;@startuml\nclass CommentUnresolved {\n  +author: ObjectId\n  +content: string\n  +createdAt: Date\n}\nclass Comment {\n  +author: User\n  +content: string\n  +createdAt: Date\n}\nclass PostUnresolved {\n  +author: ObjectId\n  +mainImageUrl: string\n  +description: string\n  +comments: CommentUnresolved[]\n  +createdAt: Date\n}\nclass Post {\n  +author: User\n  +mainImageUrl: string\n  +description: string\n  +comments: Comment[]\n  +createdAt: Date\n}\nclass PostWithId {\n  +_id: ObjectId\n}\nPostWithId --|&gt; Post\nPostUnresolved \&quot;1\&quot; *-- \&quot;*\&quot; CommentUnresolved\nPost \&quot;1\&quot; *-- \&quot;*\&quot; Comment\n@enduml&quot;,&quot;format&quot;:&quot;svg&quot;}" id="Pc-rXo_lRMbQFWNjcUTP-69">
          <mxCell style="shape=image;noLabel=1;verticalAlign=top;aspect=fixed;imageAspect=0;image=data:image/svg+xml,PHN2ZyB4bWxucz0iaHR0cDovL3d3dy53My5vcmcvMjAwMC9zdmciIHhtbG5zOnhsaW5rPSJodHRwOi8vd3d3LnczLm9yZy8xOTk5L3hsaW5rIiBjb250ZW50U3R5bGVUeXBlPSJ0ZXh0L2NzcyIgZGF0YS1kaWFncmFtLXR5cGU9IkNMQVNTIiBoZWlnaHQ9IjQ3MnB4IiBwcmVzZXJ2ZUFzcGVjdFJhdGlvPSJub25lIiBzdHlsZT0id2lkdGg6NDE5cHg7aGVpZ2h0OjQ3MnB4O2JhY2tncm91bmQ6I0ZGRkZGRjsiIHZlcnNpb249IjEuMSIgdmlld0JveD0iMCAwIDQxOSA0NzIiIHdpZHRoPSI0MTlweCIgem9vbUFuZFBhbj0ibWFnbmlmeSI+PGRlZnMvPjxnPjwhLS1jbGFzcyBDb21tZW50VW5yZXNvbHZlZC0tPjxnIGNsYXNzPSJlbnRpdHkiIGRhdGEtZW50aXR5PSJDb21tZW50VW5yZXNvbHZlZCIgZGF0YS1zb3VyY2UtbGluZT0iMSIgZGF0YS11aWQ9ImVudDAwMDIiIGlkPSJlbnRpdHlfQ29tbWVudFVucmVzb2x2ZWQiPjxyZWN0IGZpbGw9IiNGMUYxRjEiIGhlaWdodD0iOTIuOTUzMSIgcng9IjIuNSIgcnk9IjIuNSIgc3R5bGU9InN0cm9rZTojMTgxODE4O3N0cm9rZS13aWR0aDowLjU7IiB3aWR0aD0iMTUxIiB4PSI0NiIgeT0iMjA1Ii8+PGVsbGlwc2UgY3g9IjYxIiBjeT0iMjIxIiBmaWxsPSIjQUREMUIyIiByeD0iMTEiIHJ5PSIxMSIgc3R5bGU9InN0cm9rZTojMTgxODE4O3N0cm9rZS13aWR0aDoxOyIvPjxwYXRoIGQ9Ik01OC42MjUsMjI1LjI1IEw1OC42MjUsMjI3IEw2My41NjI1LDIyNyBMNjMuNTYyNSwyMjUuMjUgTDU4LjYyNSwyMjUuMjUgWiBNNTkuMzEyNSwyMjUuOTM3NSBRNTkuMzEyNSwyMjUuOTM3NSA1OS4zMTI1LDIxNi43NSBMNTcuNTYyNSwyMTYuNzUgUTU3LjU2MjUsMjE2Ljc1IDU3LjU2MjUsMjI1LjkzNzUgTDU5LjMxMjUsMjI1LjkzNzUgWiBNNjIuODc1LDIyNS45Mzc1IEw2NC42MjUsMjI1LjkzNzUgUTY0LjYyNSwyMjUuOTM3NSA2NC42MjUsMjIzLjEyNSBMNjIuODc1LDIyMy4xMjUgUTYyLjg3NSwyMjMuMTI1IDYyLjg3NSwyMjUuOTM3NSBaIE02Mi44NzUsMjE2Ljc1IFE2Mi44NzUsMjE2Ljc1IDYyLjg3NSwyMTkuNTYyNSBMNjQuNjI1LDIxOS41NjI1IFE2NC42MjUsMjE5LjU2MjUgNjQuNjI1LDIxNi43NSBMNjIuODc1LDIxNi43NSBaIE01OC42MjUsMjE3LjQzNzUgTDYzLjU2MjUsMjE3LjQzNzUgTDYzLjU2MjUsMjE1LjY4NzUgTDU4LjYyNSwyMTUuNjg3NSBMNTguNjI1LDIxNy40Mzc1IFogIiBmaWxsPSIjMDAwMDAwIi8+PHRleHQgZmlsbD0iIzAwMDAwMCIgZm9udC1mYW1pbHk9InNhbnMtc2VyaWYiIGZvbnQtc2l6ZT0iMTQiIGxlbmd0aEFkanVzdD0ic3BhY2luZyIgdGV4dExlbmd0aD0iMTE5IiB4PSI3NSIgeT0iMjI2Ljc0MjIiPkNvbW1lbnRVbnJlc29sdmVkPC90ZXh0PjxsaW5lIHN0eWxlPSJzdHJva2U6IzE4MTgxODtzdHJva2Utd2lkdGg6MC41OyIgeDE9IjQ3IiB4Mj0iMTk2IiB5MT0iMjM3IiB5Mj0iMjM3Ii8+PGVsbGlwc2UgY3g9IjU3IiBjeT0iMjQ5Ljk5MjIiIGZpbGw9Im5vbmUiIHJ4PSIzIiByeT0iMyIgc3R5bGU9InN0cm9rZTojMDM4MDQ4O3N0cm9rZS13aWR0aDoxOyIvPjx0ZXh0IGZpbGw9IiMwMDAwMDAiIGZvbnQtZmFtaWx5PSJzYW5zLXNlcmlmIiBmb250LXNpemU9IjE0IiBsZW5ndGhBZGp1c3Q9InNwYWNpbmciIHRleHRMZW5ndGg9IjExMiIgeD0iNjYiIHk9IjI1NC4yMzQ0Ij5hdXRob3I6IE9iamVjdElkPC90ZXh0PjxlbGxpcHNlIGN4PSI1NyIgY3k9IjI2NC45NzY2IiBmaWxsPSJub25lIiByeD0iMyIgcnk9IjMiIHN0eWxlPSJzdHJva2U6IzAzODA0ODtzdHJva2Utd2lkdGg6MTsiLz48dGV4dCBmaWxsPSIjMDAwMDAwIiBmb250LWZhbWlseT0ic2Fucy1zZXJpZiIgZm9udC1zaXplPSIxNCIgbGVuZ3RoQWRqdXN0PSJzcGFjaW5nIiB0ZXh0TGVuZ3RoPSIxMDUiIHg9IjY2IiB5PSIyNjkuMjE4OCI+Y29udGVudDogc3RyaW5nPC90ZXh0PjxlbGxpcHNlIGN4PSI1NyIgY3k9IjI3OS45NjA5IiBmaWxsPSJub25lIiByeD0iMyIgcnk9IjMiIHN0eWxlPSJzdHJva2U6IzAzODA0ODtzdHJva2Utd2lkdGg6MTsiLz48dGV4dCBmaWxsPSIjMDAwMDAwIiBmb250LWZhbWlseT0ic2Fucy1zZXJpZiIgZm9udC1zaXplPSIxNCIgbGVuZ3RoQWRqdXN0PSJzcGFjaW5nIiB0ZXh0TGVuZ3RoPSIxMDUiIHg9IjY2IiB5PSIyODQuMjAzMSI+Y3JlYXRlZEF0OiBEYXRlPC90ZXh0PjxsaW5lIHN0eWxlPSJzdHJva2U6IzE4MTgxODtzdHJva2Utd2lkdGg6MC41OyIgeDE9IjQ3IiB4Mj0iMTk2IiB5MT0iMjg5Ljk1MzEiIHkyPSIyODkuOTUzMSIvPjwvZz48IS0tY2xhc3MgQ29tbWVudC0tPjxnIGNsYXNzPSJlbnRpdHkiIGRhdGEtZW50aXR5PSJDb21tZW50IiBkYXRhLXNvdXJjZS1saW5lPSI2IiBkYXRhLXVpZD0iZW50MDAwMyIgaWQ9ImVudGl0eV9Db21tZW50Ij48cmVjdCBmaWxsPSIjRjFGMUYxIiBoZWlnaHQ9IjkyLjk1MzEiIHJ4PSIyLjUiIHJ5PSIyLjUiIHN0eWxlPSJzdHJva2U6IzE4MTgxODtzdHJva2Utd2lkdGg6MC41OyIgd2lkdGg9IjEzMSIgeD0iMjY0IiB5PSIzNzMiLz48ZWxsaXBzZSBjeD0iMzAxLjUiIGN5PSIzODkiIGZpbGw9IiNBREQxQjIiIHJ4PSIxMSIgcnk9IjExIiBzdHlsZT0ic3Ryb2tlOiMxODE4MTg7c3Ryb2tlLXdpZHRoOjE7Ii8+PHBhdGggZD0iTTI5OS4xMjUsMzkzLjI1IEwyOTkuMTI1LDM5NSBMMzA0LjA2MjUsMzk1IEwzMDQuMDYyNSwzOTMuMjUgTDI5OS4xMjUsMzkzLjI1IFogTTI5OS44MTI1LDM5My45Mzc1IFEyOTkuODEyNSwzOTMuOTM3NSAyOTkuODEyNSwzODQuNzUgTDI5OC4wNjI1LDM4NC43NSBRMjk4LjA2MjUsMzg0Ljc1IDI5OC4wNjI1LDM5My45Mzc1IEwyOTkuODEyNSwzOTMuOTM3NSBaIE0zMDMuMzc1LDM5My45Mzc1IEwzMDUuMTI1LDM5My45Mzc1IFEzMDUuMTI1LDM5My45Mzc1IDMwNS4xMjUsMzkxLjEyNSBMMzAzLjM3NSwzOTEuMTI1IFEzMDMuMzc1LDM5MS4xMjUgMzAzLjM3NSwzOTMuOTM3NSBaIE0zMDMuMzc1LDM4NC43NSBRMzAzLjM3NSwzODQuNzUgMzAzLjM3NSwzODcuNTYyNSBMMzA1LjEyNSwzODcuNTYyNSBRMzA1LjEyNSwzODcuNTYyNSAzMDUuMTI1LDM4NC43NSBMMzAzLjM3NSwzODQuNzUgWiBNMjk5LjEyNSwzODUuNDM3NSBMMzA0LjA2MjUsMzg1LjQzNzUgTDMwNC4wNjI1LDM4My42ODc1IEwyOTkuMTI1LDM4My42ODc1IEwyOTkuMTI1LDM4NS40Mzc1IFogIiBmaWxsPSIjMDAwMDAwIi8+PHRleHQgZmlsbD0iIzAwMDAwMCIgZm9udC1mYW1pbHk9InNhbnMtc2VyaWYiIGZvbnQtc2l6ZT0iMTQiIGxlbmd0aEFkanVzdD0ic3BhY2luZyIgdGV4dExlbmd0aD0iNDkiIHg9IjMyMC41IiB5PSIzOTQuNzQyMiI+Q29tbWVudDwvdGV4dD48bGluZSBzdHlsZT0ic3Ryb2tlOiMxODE4MTg7c3Ryb2tlLXdpZHRoOjAuNTsiIHgxPSIyNjUiIHgyPSIzOTQiIHkxPSI0MDUiIHkyPSI0MDUiLz48ZWxsaXBzZSBjeD0iMjc1IiBjeT0iNDE3Ljk5MjIiIGZpbGw9Im5vbmUiIHJ4PSIzIiByeT0iMyIgc3R5bGU9InN0cm9rZTojMDM4MDQ4O3N0cm9rZS13aWR0aDoxOyIvPjx0ZXh0IGZpbGw9IiMwMDAwMDAiIGZvbnQtZmFtaWx5PSJzYW5zLXNlcmlmIiBmb250LXNpemU9IjE0IiBsZW5ndGhBZGp1c3Q9InNwYWNpbmciIHRleHRMZW5ndGg9Ijg0IiB4PSIyODQiIHk9IjQyMi4yMzQ0Ij5hdXRob3I6IFVzZXI8L3RleHQ+PGVsbGlwc2UgY3g9IjI3NSIgY3k9IjQzMi45NzY2IiBmaWxsPSJub25lIiByeD0iMyIgcnk9IjMiIHN0eWxlPSJzdHJva2U6IzAzODA0ODtzdHJva2Utd2lkdGg6MTsiLz48dGV4dCBmaWxsPSIjMDAwMDAwIiBmb250LWZhbWlseT0ic2Fucy1zZXJpZiIgZm9udC1zaXplPSIxNCIgbGVuZ3RoQWRqdXN0PSJzcGFjaW5nIiB0ZXh0TGVuZ3RoPSIxMDUiIHg9IjI4NCIgeT0iNDM3LjIxODgiPmNvbnRlbnQ6IHN0cmluZzwvdGV4dD48ZWxsaXBzZSBjeD0iMjc1IiBjeT0iNDQ3Ljk2MDkiIGZpbGw9Im5vbmUiIHJ4PSIzIiByeT0iMyIgc3R5bGU9InN0cm9rZTojMDM4MDQ4O3N0cm9rZS13aWR0aDoxOyIvPjx0ZXh0IGZpbGw9IiMwMDAwMDAiIGZvbnQtZmFtaWx5PSJzYW5zLXNlcmlmIiBmb250LXNpemU9IjE0IiBsZW5ndGhBZGp1c3Q9InNwYWNpbmciIHRleHRMZW5ndGg9IjEwNSIgeD0iMjg0IiB5PSI0NTIuMjAzMSI+Y3JlYXRlZEF0OiBEYXRlPC90ZXh0PjxsaW5lIHN0eWxlPSJzdHJva2U6IzE4MTgxODtzdHJva2Utd2lkdGg6MC41OyIgeDE9IjI2NSIgeDI9IjM5NCIgeTE9IjQ1Ny45NTMxIiB5Mj0iNDU3Ljk1MzEiLz48L2c+PCEtLWNsYXNzIFBvc3RVbnJlc29sdmVkLS0+PGcgY2xhc3M9ImVudGl0eSIgZGF0YS1lbnRpdHk9IlBvc3RVbnJlc29sdmVkIiBkYXRhLXNvdXJjZS1saW5lPSIxMSIgZGF0YS11aWQ9ImVudDAwMDQiIGlkPSJlbnRpdHlfUG9zdFVucmVzb2x2ZWQiPjxyZWN0IGZpbGw9IiNGMUYxRjEiIGhlaWdodD0iMTIyLjkyMTkiIHJ4PSIyLjUiIHJ5PSIyLjUiIHN0eWxlPSJzdHJva2U6IzE4MTgxODtzdHJva2Utd2lkdGg6MC41OyIgd2lkdGg9IjIyOSIgeD0iNyIgeT0iNyIvPjxlbGxpcHNlIGN4PSI2OC4yNSIgY3k9IjIzIiBmaWxsPSIjQUREMUIyIiByeD0iMTEiIHJ5PSIxMSIgc3R5bGU9InN0cm9rZTojMTgxODE4O3N0cm9rZS13aWR0aDoxOyIvPjxwYXRoIGQ9Ik02NS44NzUsMjcuMjUgTDY1Ljg3NSwyOSBMNzAuODEyNSwyOSBMNzAuODEyNSwyNy4yNSBMNjUuODc1LDI3LjI1IFogTTY2LjU2MjUsMjcuOTM3NSBRNjYuNTYyNSwyNy45Mzc1IDY2LjU2MjUsMTguNzUgTDY0LjgxMjUsMTguNzUgUTY0LjgxMjUsMTguNzUgNjQuODEyNSwyNy45Mzc1IEw2Ni41NjI1LDI3LjkzNzUgWiBNNzAuMTI1LDI3LjkzNzUgTDcxLjg3NSwyNy45Mzc1IFE3MS44NzUsMjcuOTM3NSA3MS44NzUsMjUuMTI1IEw3MC4xMjUsMjUuMTI1IFE3MC4xMjUsMjUuMTI1IDcwLjEyNSwyNy45Mzc1IFogTTcwLjEyNSwxOC43NSBRNzAuMTI1LDE4Ljc1IDcwLjEyNSwyMS41NjI1IEw3MS44NzUsMjEuNTYyNSBRNzEuODc1LDIxLjU2MjUgNzEuODc1LDE4Ljc1IEw3MC4xMjUsMTguNzUgWiBNNjUuODc1LDE5LjQzNzUgTDcwLjgxMjUsMTkuNDM3NSBMNzAuODEyNSwxNy42ODc1IEw2NS44NzUsMTcuNjg3NSBMNjUuODc1LDE5LjQzNzUgWiAiIGZpbGw9IiMwMDAwMDAiLz48dGV4dCBmaWxsPSIjMDAwMDAwIiBmb250LWZhbWlseT0ic2Fucy1zZXJpZiIgZm9udC1zaXplPSIxNCIgbGVuZ3RoQWRqdXN0PSJzcGFjaW5nIiB0ZXh0TGVuZ3RoPSI5OCIgeD0iODguNzUiIHk9IjI4Ljc0MjIiPlBvc3RVbnJlc29sdmVkPC90ZXh0PjxsaW5lIHN0eWxlPSJzdHJva2U6IzE4MTgxODtzdHJva2Utd2lkdGg6MC41OyIgeDE9IjgiIHgyPSIyMzUiIHkxPSIzOSIgeTI9IjM5Ii8+PGVsbGlwc2UgY3g9IjE4IiBjeT0iNTEuOTkyMiIgZmlsbD0ibm9uZSIgcng9IjMiIHJ5PSIzIiBzdHlsZT0ic3Ryb2tlOiMwMzgwNDg7c3Ryb2tlLXdpZHRoOjE7Ii8+PHRleHQgZmlsbD0iIzAwMDAwMCIgZm9udC1mYW1pbHk9InNhbnMtc2VyaWYiIGZvbnQtc2l6ZT0iMTQiIGxlbmd0aEFkanVzdD0ic3BhY2luZyIgdGV4dExlbmd0aD0iMTEyIiB4PSIyNyIgeT0iNTYuMjM0NCI+YXV0aG9yOiBPYmplY3RJZDwvdGV4dD48ZWxsaXBzZSBjeD0iMTgiIGN5PSI2Ni45NzY2IiBmaWxsPSJub25lIiByeD0iMyIgcnk9IjMiIHN0eWxlPSJzdHJva2U6IzAzODA0ODtzdHJva2Utd2lkdGg6MTsiLz48dGV4dCBmaWxsPSIjMDAwMDAwIiBmb250LWZhbWlseT0ic2Fucy1zZXJpZiIgZm9udC1zaXplPSIxNCIgbGVuZ3RoQWRqdXN0PSJzcGFjaW5nIiB0ZXh0TGVuZ3RoPSIxNDAiIHg9IjI3IiB5PSI3MS4yMTg4Ij5tYWluSW1hZ2VVcmw6IHN0cmluZzwvdGV4dD48ZWxsaXBzZSBjeD0iMTgiIGN5PSI4MS45NjA5IiBmaWxsPSJub25lIiByeD0iMyIgcnk9IjMiIHN0eWxlPSJzdHJva2U6IzAzODA0ODtzdHJva2Utd2lkdGg6MTsiLz48dGV4dCBmaWxsPSIjMDAwMDAwIiBmb250LWZhbWlseT0ic2Fucy1zZXJpZiIgZm9udC1zaXplPSIxNCIgbGVuZ3RoQWRqdXN0PSJzcGFjaW5nIiB0ZXh0TGVuZ3RoPSIxMzMiIHg9IjI3IiB5PSI4Ni4yMDMxIj5kZXNjcmlwdGlvbjogc3RyaW5nPC90ZXh0PjxlbGxpcHNlIGN4PSIxOCIgY3k9Ijk2Ljk0NTMiIGZpbGw9Im5vbmUiIHJ4PSIzIiByeT0iMyIgc3R5bGU9InN0cm9rZTojMDM4MDQ4O3N0cm9rZS13aWR0aDoxOyIvPjx0ZXh0IGZpbGw9IiMwMDAwMDAiIGZvbnQtZmFtaWx5PSJzYW5zLXNlcmlmIiBmb250LXNpemU9IjE0IiBsZW5ndGhBZGp1c3Q9InNwYWNpbmciIHRleHRMZW5ndGg9IjIwMyIgeD0iMjciIHk9IjEwMS4xODc1Ij5jb21tZW50czogQ29tbWVudFVucmVzb2x2ZWRbXTwvdGV4dD48ZWxsaXBzZSBjeD0iMTgiIGN5PSIxMTEuOTI5NyIgZmlsbD0ibm9uZSIgcng9IjMiIHJ5PSIzIiBzdHlsZT0ic3Ryb2tlOiMwMzgwNDg7c3Ryb2tlLXdpZHRoOjE7Ii8+PHRleHQgZmlsbD0iIzAwMDAwMCIgZm9udC1mYW1pbHk9InNhbnMtc2VyaWYiIGZvbnQtc2l6ZT0iMTQiIGxlbmd0aEFkanVzdD0ic3BhY2luZyIgdGV4dExlbmd0aD0iMTA1IiB4PSIyNyIgeT0iMTE2LjE3MTkiPmNyZWF0ZWRBdDogRGF0ZTwvdGV4dD48bGluZSBzdHlsZT0ic3Ryb2tlOiMxODE4MTg7c3Ryb2tlLXdpZHRoOjAuNTsiIHgxPSI4IiB4Mj0iMjM1IiB5MT0iMTIxLjkyMTkiIHkyPSIxMjEuOTIxOSIvPjwvZz48IS0tY2xhc3MgUG9zdC0tPjxnIGNsYXNzPSJlbnRpdHkiIGRhdGEtZW50aXR5PSJQb3N0IiBkYXRhLXNvdXJjZS1saW5lPSIxOCIgZGF0YS11aWQ9ImVudDAwMDUiIGlkPSJlbnRpdHlfUG9zdCI+PHJlY3QgZmlsbD0iI0YxRjFGMSIgaGVpZ2h0PSIxMjIuOTIxOSIgcng9IjIuNSIgcnk9IjIuNSIgc3R5bGU9InN0cm9rZTojMTgxODE4O3N0cm9rZS13aWR0aDowLjU7IiB3aWR0aD0iMTY2IiB4PSIyNDYuNSIgeT0iMTkwIi8+PGVsbGlwc2UgY3g9IjMxMS4yNSIgY3k9IjIwNiIgZmlsbD0iI0FERDFCMiIgcng9IjExIiByeT0iMTEiIHN0eWxlPSJzdHJva2U6IzE4MTgxODtzdHJva2Utd2lkdGg6MTsiLz48cGF0aCBkPSJNMzA4Ljg3NSwyMTAuMjUgTDMwOC44NzUsMjEyIEwzMTMuODEyNSwyMTIgTDMxMy44MTI1LDIxMC4yNSBMMzA4Ljg3NSwyMTAuMjUgWiBNMzA5LjU2MjUsMjEwLjkzNzUgUTMwOS41NjI1LDIxMC45Mzc1IDMwOS41NjI1LDIwMS43NSBMMzA3LjgxMjUsMjAxLjc1IFEzMDcuODEyNSwyMDEuNzUgMzA3LjgxMjUsMjEwLjkzNzUgTDMwOS41NjI1LDIxMC45Mzc1IFogTTMxMy4xMjUsMjEwLjkzNzUgTDMxNC44NzUsMjEwLjkzNzUgUTMxNC44NzUsMjEwLjkzNzUgMzE0Ljg3NSwyMDguMTI1IEwzMTMuMTI1LDIwOC4xMjUgUTMxMy4xMjUsMjA4LjEyNSAzMTMuMTI1LDIxMC45Mzc1IFogTTMxMy4xMjUsMjAxLjc1IFEzMTMuMTI1LDIwMS43NSAzMTMuMTI1LDIwNC41NjI1IEwzMTQuODc1LDIwNC41NjI1IFEzMTQuODc1LDIwNC41NjI1IDMxNC44NzUsMjAxLjc1IEwzMTMuMTI1LDIwMS43NSBaIE0zMDguODc1LDIwMi40Mzc1IEwzMTMuODEyNSwyMDIuNDM3NSBMMzEzLjgxMjUsMjAwLjY4NzUgTDMwOC44NzUsMjAwLjY4NzUgTDMwOC44NzUsMjAyLjQzNzUgWiAiIGZpbGw9IiMwMDAwMDAiLz48dGV4dCBmaWxsPSIjMDAwMDAwIiBmb250LWZhbWlseT0ic2Fucy1zZXJpZiIgZm9udC1zaXplPSIxNCIgbGVuZ3RoQWRqdXN0PSJzcGFjaW5nIiB0ZXh0TGVuZ3RoPSIyOCIgeD0iMzMxLjc1IiB5PSIyMTEuNzQyMiI+UG9zdDwvdGV4dD48bGluZSBzdHlsZT0ic3Ryb2tlOiMxODE4MTg7c3Ryb2tlLXdpZHRoOjAuNTsiIHgxPSIyNDcuNSIgeDI9IjQxMS41IiB5MT0iMjIyIiB5Mj0iMjIyIi8+PGVsbGlwc2UgY3g9IjI1Ny41IiBjeT0iMjM0Ljk5MjIiIGZpbGw9Im5vbmUiIHJ4PSIzIiByeT0iMyIgc3R5bGU9InN0cm9rZTojMDM4MDQ4O3N0cm9rZS13aWR0aDoxOyIvPjx0ZXh0IGZpbGw9IiMwMDAwMDAiIGZvbnQtZmFtaWx5PSJzYW5zLXNlcmlmIiBmb250LXNpemU9IjE0IiBsZW5ndGhBZGp1c3Q9InNwYWNpbmciIHRleHRMZW5ndGg9Ijg0IiB4PSIyNjYuNSIgeT0iMjM5LjIzNDQiPmF1dGhvcjogVXNlcjwvdGV4dD48ZWxsaXBzZSBjeD0iMjU3LjUiIGN5PSIyNDkuOTc2NiIgZmlsbD0ibm9uZSIgcng9IjMiIHJ5PSIzIiBzdHlsZT0ic3Ryb2tlOiMwMzgwNDg7c3Ryb2tlLXdpZHRoOjE7Ii8+PHRleHQgZmlsbD0iIzAwMDAwMCIgZm9udC1mYW1pbHk9InNhbnMtc2VyaWYiIGZvbnQtc2l6ZT0iMTQiIGxlbmd0aEFkanVzdD0ic3BhY2luZyIgdGV4dExlbmd0aD0iMTQwIiB4PSIyNjYuNSIgeT0iMjU0LjIxODgiPm1haW5JbWFnZVVybDogc3RyaW5nPC90ZXh0PjxlbGxpcHNlIGN4PSIyNTcuNSIgY3k9IjI2NC45NjA5IiBmaWxsPSJub25lIiByeD0iMyIgcnk9IjMiIHN0eWxlPSJzdHJva2U6IzAzODA0ODtzdHJva2Utd2lkdGg6MTsiLz48dGV4dCBmaWxsPSIjMDAwMDAwIiBmb250LWZhbWlseT0ic2Fucy1zZXJpZiIgZm9udC1zaXplPSIxNCIgbGVuZ3RoQWRqdXN0PSJzcGFjaW5nIiB0ZXh0TGVuZ3RoPSIxMzMiIHg9IjI2Ni41IiB5PSIyNjkuMjAzMSI+ZGVzY3JpcHRpb246IHN0cmluZzwvdGV4dD48ZWxsaXBzZSBjeD0iMjU3LjUiIGN5PSIyNzkuOTQ1MyIgZmlsbD0ibm9uZSIgcng9IjMiIHJ5PSIzIiBzdHlsZT0ic3Ryb2tlOiMwMzgwNDg7c3Ryb2tlLXdpZHRoOjE7Ii8+PHRleHQgZmlsbD0iIzAwMDAwMCIgZm9udC1mYW1pbHk9InNhbnMtc2VyaWYiIGZvbnQtc2l6ZT0iMTQiIGxlbmd0aEFkanVzdD0ic3BhY2luZyIgdGV4dExlbmd0aD0iMTMzIiB4PSIyNjYuNSIgeT0iMjg0LjE4NzUiPmNvbW1lbnRzOiBDb21tZW50W108L3RleHQ+PGVsbGlwc2UgY3g9IjI1Ny41IiBjeT0iMjk0LjkyOTciIGZpbGw9Im5vbmUiIHJ4PSIzIiByeT0iMyIgc3R5bGU9InN0cm9rZTojMDM4MDQ4O3N0cm9rZS13aWR0aDoxOyIvPjx0ZXh0IGZpbGw9IiMwMDAwMDAiIGZvbnQtZmFtaWx5PSJzYW5zLXNlcmlmIiBmb250LXNpemU9IjE0IiBsZW5ndGhBZGp1c3Q9InNwYWNpbmciIHRleHRMZW5ndGg9IjEwNSIgeD0iMjY2LjUiIHk9IjI5OS4xNzE5Ij5jcmVhdGVkQXQ6IERhdGU8L3RleHQ+PGxpbmUgc3R5bGU9InN0cm9rZTojMTgxODE4O3N0cm9rZS13aWR0aDowLjU7IiB4MT0iMjQ3LjUiIHgyPSI0MTEuNSIgeTE9IjMwNC45MjE5IiB5Mj0iMzA0LjkyMTkiLz48L2c+PCEtLWNsYXNzIFBvc3RXaXRoSWQtLT48ZyBjbGFzcz0iZW50aXR5IiBkYXRhLWVudGl0eT0iUG9zdFdpdGhJZCIgZGF0YS1zb3VyY2UtbGluZT0iMjUiIGRhdGEtdWlkPSJlbnQwMDA2IiBpZD0iZW50aXR5X1Bvc3RXaXRoSWQiPjxyZWN0IGZpbGw9IiNGMUYxRjEiIGhlaWdodD0iNjIuOTg0NCIgcng9IjIuNSIgcnk9IjIuNSIgc3R5bGU9InN0cm9rZTojMTgxODE4O3N0cm9rZS13aWR0aDowLjU7IiB3aWR0aD0iMTE3IiB4PSIyNzEiIHk9IjM3Ii8+PGVsbGlwc2UgY3g9IjI5Mi43NSIgY3k9IjUzIiBmaWxsPSIjQUREMUIyIiByeD0iMTEiIHJ5PSIxMSIgc3R5bGU9InN0cm9rZTojMTgxODE4O3N0cm9rZS13aWR0aDoxOyIvPjxwYXRoIGQ9Ik0yOTAuMzc1LDU3LjI1IEwyOTAuMzc1LDU5IEwyOTUuMzEyNSw1OSBMMjk1LjMxMjUsNTcuMjUgTDI5MC4zNzUsNTcuMjUgWiBNMjkxLjA2MjUsNTcuOTM3NSBRMjkxLjA2MjUsNTcuOTM3NSAyOTEuMDYyNSw0OC43NSBMMjg5LjMxMjUsNDguNzUgUTI4OS4zMTI1LDQ4Ljc1IDI4OS4zMTI1LDU3LjkzNzUgTDI5MS4wNjI1LDU3LjkzNzUgWiBNMjk0LjYyNSw1Ny45Mzc1IEwyOTYuMzc1LDU3LjkzNzUgUTI5Ni4zNzUsNTcuOTM3NSAyOTYuMzc1LDU1LjEyNSBMMjk0LjYyNSw1NS4xMjUgUTI5NC42MjUsNTUuMTI1IDI5NC42MjUsNTcuOTM3NSBaIE0yOTQuNjI1LDQ4Ljc1IFEyOTQuNjI1LDQ4Ljc1IDI5NC42MjUsNTEuNTYyNSBMMjk2LjM3NSw1MS41NjI1IFEyOTYuMzc1LDUxLjU2MjUgMjk2LjM3NSw0OC43NSBMMjk0LjYyNSw0OC43NSBaIE0yOTAuMzc1LDQ5LjQzNzUgTDI5NS4zMTI1LDQ5LjQzNzUgTDI5NS4zMTI1LDQ3LjY4NzUgTDI5MC4zNzUsNDcuNjg3NSBMMjkwLjM3NSw0OS40Mzc1IFogIiBmaWxsPSIjMDAwMDAwIi8+PHRleHQgZmlsbD0iIzAwMDAwMCIgZm9udC1mYW1pbHk9InNhbnMtc2VyaWYiIGZvbnQtc2l6ZT0iMTQiIGxlbmd0aEFkanVzdD0ic3BhY2luZyIgdGV4dExlbmd0aD0iNzAiIHg9IjMwOC4yNSIgeT0iNTguNzQyMiI+UG9zdFdpdGhJZDwvdGV4dD48bGluZSBzdHlsZT0ic3Ryb2tlOiMxODE4MTg7c3Ryb2tlLXdpZHRoOjAuNTsiIHgxPSIyNzIiIHgyPSIzODciIHkxPSI2OSIgeTI9IjY5Ii8+PGVsbGlwc2UgY3g9IjI4MiIgY3k9IjgxLjk5MjIiIGZpbGw9Im5vbmUiIHJ4PSIzIiByeT0iMyIgc3R5bGU9InN0cm9rZTojMDM4MDQ4O3N0cm9rZS13aWR0aDoxOyIvPjx0ZXh0IGZpbGw9IiMwMDAwMDAiIGZvbnQtZmFtaWx5PSJzYW5zLXNlcmlmIiBmb250LXNpemU9IjE0IiBsZW5ndGhBZGp1c3Q9InNwYWNpbmciIHRleHRMZW5ndGg9IjkxIiB4PSIyOTEiIHk9Ijg2LjIzNDQiPl9pZDogT2JqZWN0SWQ8L3RleHQ+PGxpbmUgc3R5bGU9InN0cm9rZTojMTgxODE4O3N0cm9rZS13aWR0aDowLjU7IiB4MT0iMjcyIiB4Mj0iMzg3IiB5MT0iOTEuOTg0NCIgeTI9IjkxLjk4NDQiLz48L2c+PCEtLWxpbmsgUG9zdFdpdGhJZCB0byBQb3N0LS0+PGcgY2xhc3M9ImxpbmsiIGRhdGEtZW50aXR5LTE9IlBvc3RXaXRoSWQiIGRhdGEtZW50aXR5LTI9IlBvc3QiIGRhdGEtc291cmNlLWxpbmU9IjI4IiBkYXRhLXVpZD0ibG5rNyIgaWQ9ImxpbmtfUG9zdFdpdGhJZF9Qb3N0Ij48cGF0aCBjb2RlTGluZT0iMjgiIGQ9Ik0zMjkuNSwxMDAuMiBDMzI5LjUsMTI0LjcxIDMyOS41LDE0MS44MSAzMjkuNSwxNzEuOTMiIGZpbGw9Im5vbmUiIGlkPSJQb3N0V2l0aElkLXRvLVBvc3QiIHN0eWxlPSJzdHJva2U6IzE4MTgxODtzdHJva2Utd2lkdGg6MTsiLz48cG9seWdvbiBmaWxsPSJub25lIiBwb2ludHM9IjMyOS41LDE4OS45MywzMzUuNSwxNzEuOTMsMzIzLjUsMTcxLjkzLDMyOS41LDE4OS45MyIgc3R5bGU9InN0cm9rZTojMTgxODE4O3N0cm9rZS13aWR0aDoxOyIvPjwvZz48IS0tcmV2ZXJzZSBsaW5rIFBvc3RVbnJlc29sdmVkIHRvIENvbW1lbnRVbnJlc29sdmVkLS0+PGcgY2xhc3M9ImxpbmsiIGRhdGEtZW50aXR5LTE9IlBvc3RVbnJlc29sdmVkIiBkYXRhLWVudGl0eS0yPSJDb21tZW50VW5yZXNvbHZlZCIgZGF0YS1zb3VyY2UtbGluZT0iMjkiIGRhdGEtdWlkPSJsbms4IiBpZD0ibGlua19Qb3N0VW5yZXNvbHZlZF9Db21tZW50VW5yZXNvbHZlZCI+PHBhdGggY29kZUxpbmU9IjI5IiBkPSJNMTIxLjUsMTQyLjAyIEMxMjEuNSwxNjYuNDggMTIxLjUsMTgyLjIzIDEyMS41LDIwNC45MyIgZmlsbD0ibm9uZSIgaWQ9IlBvc3RVbnJlc29sdmVkLWJhY2t0by1Db21tZW50VW5yZXNvbHZlZCIgc3R5bGU9InN0cm9rZTojMTgxODE4O3N0cm9rZS13aWR0aDoxOyIvPjxwb2x5Z29uIGZpbGw9IiMxODE4MTgiIHBvaW50cz0iMTIxLjUsMTMwLjAyLDExNy41LDEzNi4wMiwxMjEuNSwxNDIuMDIsMTI1LjUsMTM2LjAyLDEyMS41LDEzMC4wMiIgc3R5bGU9InN0cm9rZTojMTgxODE4O3N0cm9rZS13aWR0aDoxOyIvPjx0ZXh0IGZpbGw9IiMwMDAwMDAiIGZvbnQtZmFtaWx5PSJzYW5zLXNlcmlmIiBmb250LXNpemU9IjEzIiBsZW5ndGhBZGp1c3Q9InNwYWNpbmciIHRleHRMZW5ndGg9IjYuNSIgeD0iMTE1LjE4MiIgeT0iMTUwLjIzMTIiPjE8L3RleHQ+PHRleHQgZmlsbD0iIzAwMDAwMCIgZm9udC1mYW1pbHk9InNhbnMtc2VyaWYiIGZvbnQtc2l6ZT0iMTMiIGxlbmd0aEFkanVzdD0ic3BhY2luZyIgdGV4dExlbmd0aD0iNi41IiB4PSIxMTUuMDQ0NSIgeT0iMTk1LjUwODkiPio8L3RleHQ+PC9nPjwhLS1yZXZlcnNlIGxpbmsgUG9zdCB0byBDb21tZW50LS0+PGcgY2xhc3M9ImxpbmsiIGRhdGEtZW50aXR5LTE9IlBvc3QiIGRhdGEtZW50aXR5LTI9IkNvbW1lbnQiIGRhdGEtc291cmNlLWxpbmU9IjMwIiBkYXRhLXVpZD0ibG5rOSIgaWQ9ImxpbmtfUG9zdF9Db21tZW50Ij48cGF0aCBjb2RlTGluZT0iMzAiIGQ9Ik0zMjkuNSwzMjUuMzcgQzMyOS41LDM0NS4wOCAzMjkuNSwzNTQuNTggMzI5LjUsMzcyLjk4IiBmaWxsPSJub25lIiBpZD0iUG9zdC1iYWNrdG8tQ29tbWVudCIgc3R5bGU9InN0cm9rZTojMTgxODE4O3N0cm9rZS13aWR0aDoxOyIvPjxwb2x5Z29uIGZpbGw9IiMxODE4MTgiIHBvaW50cz0iMzI5LjUsMzEzLjM3LDMyNS41LDMxOS4zNywzMjkuNSwzMjUuMzcsMzMzLjUsMzE5LjM3LDMyOS41LDMxMy4zNyIgc3R5bGU9InN0cm9rZTojMTgxODE4O3N0cm9rZS13aWR0aDoxOyIvPjx0ZXh0IGZpbGw9IiMwMDAwMDAiIGZvbnQtZmFtaWx5PSJzYW5zLXNlcmlmIiBmb250LXNpemU9IjEzIiBsZW5ndGhBZGp1c3Q9InNwYWNpbmciIHRleHRMZW5ndGg9IjYuNSIgeD0iMzIzLjE5OTIiIHk9IjMzMy4xOTEzIj4xPC90ZXh0Pjx0ZXh0IGZpbGw9IiMwMDAwMDAiIGZvbnQtZmFtaWx5PSJzYW5zLXNlcmlmIiBmb250LXNpemU9IjEzIiBsZW5ndGhBZGp1c3Q9InNwYWNpbmciIHRleHRMZW5ndGg9IjYuNSIgeD0iMzIzLjAyNzMiIHk9IjM2My4yMzg4Ij4qPC90ZXh0PjwvZz48IS0tU1JDPVtmTDB6Mnk4bTREdHBBcUI2SVdWTjNlQmVxYWNOdVkwWUNKZFFJOUQ4eGRKSF9kVGhUS1lqS0NOalVGVHVOd2dNWTdwWGhHTDdYR2swbGh3MHZiVjYtS0lVZ1Y4WHV3bDM0SEpiLWU0Znh3WWJQWG1mNjVUc0swMTllRVNqazZtRnJaMExnX1FyMmVKbWV5eFF1clZIaDNHa2p4QTQ4akluaFdQS21QcDhVRFVwVXlSM1I1WF9rbmxCeXhkS2xtZDZWSlU2Z2xvcm1UeGVRODI2SFZ5cWxTcXdGZGlSSnFtNUp6QUtZcUdDUXRWYUp2R3hdLS0+PC9nPjwvc3ZnPg==;" vertex="1" parent="1">
            <mxGeometry x="-1114" y="-820" width="419" height="472" as="geometry" />
          </mxCell>
        </UserObject>
        <UserObject label="" plantUmlData="{&quot;data&quot;:&quot;@startuml\nclass Store {\n  +name: string\n  +description?: string\n  +websiteUrl?: string\n  +phoneNumber?: string\n  +address?: string\n  +createdAt: Date\n}\nclass StoreWithId {\n  +_id: ObjectId\n}\nStoreWithId \&quot;1\&quot; --|&gt; \&quot;1\&quot; Store\n@enduml&quot;,&quot;format&quot;:&quot;svg&quot;}" id="Pc-rXo_lRMbQFWNjcUTP-127">
          <mxCell style="shape=image;noLabel=1;verticalAlign=top;aspect=fixed;imageAspect=0;image=data:image/svg+xml,PHN2ZyB4bWxucz0iaHR0cDovL3d3dy53My5vcmcvMjAwMC9zdmciIHhtbG5zOnhsaW5rPSJodHRwOi8vd3d3LnczLm9yZy8xOTk5L3hsaW5rIiBjb250ZW50U3R5bGVUeXBlPSJ0ZXh0L2NzcyIgZGF0YS1kaWFncmFtLXR5cGU9IkNMQVNTIiBoZWlnaHQ9IjI3NHB4IiBwcmVzZXJ2ZUFzcGVjdFJhdGlvPSJub25lIiBzdHlsZT0id2lkdGg6MTgwcHg7aGVpZ2h0OjI3NHB4O2JhY2tncm91bmQ6I0ZGRkZGRjsiIHZlcnNpb249IjEuMSIgdmlld0JveD0iMCAwIDE4MCAyNzQiIHdpZHRoPSIxODBweCIgem9vbUFuZFBhbj0ibWFnbmlmeSI+PGRlZnMvPjxnPjwhLS1jbGFzcyBTdG9yZS0tPjxnIGNsYXNzPSJlbnRpdHkiIGRhdGEtZW50aXR5PSJTdG9yZSIgZGF0YS1zb3VyY2UtbGluZT0iMSIgZGF0YS11aWQ9ImVudDAwMDIiIGlkPSJlbnRpdHlfU3RvcmUiPjxyZWN0IGZpbGw9IiNGMUYxRjEiIGhlaWdodD0iMTM3LjkwNjMiIHJ4PSIyLjUiIHJ5PSIyLjUiIHN0eWxlPSJzdHJva2U6IzE4MTgxODtzdHJva2Utd2lkdGg6MC41OyIgd2lkdGg9IjE2NiIgeD0iNyIgeT0iMTMwIi8+PGVsbGlwc2UgY3g9IjY4LjI1IiBjeT0iMTQ2IiBmaWxsPSIjQUREMUIyIiByeD0iMTEiIHJ5PSIxMSIgc3R5bGU9InN0cm9rZTojMTgxODE4O3N0cm9rZS13aWR0aDoxOyIvPjxwYXRoIGQ9Ik02NS44NzUsMTUwLjI1IEw2NS44NzUsMTUyIEw3MC44MTI1LDE1MiBMNzAuODEyNSwxNTAuMjUgTDY1Ljg3NSwxNTAuMjUgWiBNNjYuNTYyNSwxNTAuOTM3NSBRNjYuNTYyNSwxNTAuOTM3NSA2Ni41NjI1LDE0MS43NSBMNjQuODEyNSwxNDEuNzUgUTY0LjgxMjUsMTQxLjc1IDY0LjgxMjUsMTUwLjkzNzUgTDY2LjU2MjUsMTUwLjkzNzUgWiBNNzAuMTI1LDE1MC45Mzc1IEw3MS44NzUsMTUwLjkzNzUgUTcxLjg3NSwxNTAuOTM3NSA3MS44NzUsMTQ4LjEyNSBMNzAuMTI1LDE0OC4xMjUgUTcwLjEyNSwxNDguMTI1IDcwLjEyNSwxNTAuOTM3NSBaIE03MC4xMjUsMTQxLjc1IFE3MC4xMjUsMTQxLjc1IDcwLjEyNSwxNDQuNTYyNSBMNzEuODc1LDE0NC41NjI1IFE3MS44NzUsMTQ0LjU2MjUgNzEuODc1LDE0MS43NSBMNzAuMTI1LDE0MS43NSBaIE02NS44NzUsMTQyLjQzNzUgTDcwLjgxMjUsMTQyLjQzNzUgTDcwLjgxMjUsMTQwLjY4NzUgTDY1Ljg3NSwxNDAuNjg3NSBMNjUuODc1LDE0Mi40Mzc1IFogIiBmaWxsPSIjMDAwMDAwIi8+PHRleHQgZmlsbD0iIzAwMDAwMCIgZm9udC1mYW1pbHk9InNhbnMtc2VyaWYiIGZvbnQtc2l6ZT0iMTQiIGxlbmd0aEFkanVzdD0ic3BhY2luZyIgdGV4dExlbmd0aD0iMzUiIHg9Ijg4Ljc1IiB5PSIxNTEuNzQyMiI+U3RvcmU8L3RleHQ+PGxpbmUgc3R5bGU9InN0cm9rZTojMTgxODE4O3N0cm9rZS13aWR0aDowLjU7IiB4MT0iOCIgeDI9IjE3MiIgeTE9IjE2MiIgeTI9IjE2MiIvPjxlbGxpcHNlIGN4PSIxOCIgY3k9IjE3NC45OTIyIiBmaWxsPSJub25lIiByeD0iMyIgcnk9IjMiIHN0eWxlPSJzdHJva2U6IzAzODA0ODtzdHJva2Utd2lkdGg6MTsiLz48dGV4dCBmaWxsPSIjMDAwMDAwIiBmb250LWZhbWlseT0ic2Fucy1zZXJpZiIgZm9udC1zaXplPSIxNCIgbGVuZ3RoQWRqdXN0PSJzcGFjaW5nIiB0ZXh0TGVuZ3RoPSI4NCIgeD0iMjciIHk9IjE3OS4yMzQ0Ij5uYW1lOiBzdHJpbmc8L3RleHQ+PGVsbGlwc2UgY3g9IjE4IiBjeT0iMTg5Ljk3NjYiIGZpbGw9Im5vbmUiIHJ4PSIzIiByeT0iMyIgc3R5bGU9InN0cm9rZTojMDM4MDQ4O3N0cm9rZS13aWR0aDoxOyIvPjx0ZXh0IGZpbGw9IiMwMDAwMDAiIGZvbnQtZmFtaWx5PSJzYW5zLXNlcmlmIiBmb250LXNpemU9IjE0IiBsZW5ndGhBZGp1c3Q9InNwYWNpbmciIHRleHRMZW5ndGg9IjE0MCIgeD0iMjciIHk9IjE5NC4yMTg4Ij5kZXNjcmlwdGlvbj86IHN0cmluZzwvdGV4dD48ZWxsaXBzZSBjeD0iMTgiIGN5PSIyMDQuOTYwOSIgZmlsbD0ibm9uZSIgcng9IjMiIHJ5PSIzIiBzdHlsZT0ic3Ryb2tlOiMwMzgwNDg7c3Ryb2tlLXdpZHRoOjE7Ii8+PHRleHQgZmlsbD0iIzAwMDAwMCIgZm9udC1mYW1pbHk9InNhbnMtc2VyaWYiIGZvbnQtc2l6ZT0iMTQiIGxlbmd0aEFkanVzdD0ic3BhY2luZyIgdGV4dExlbmd0aD0iMTMzIiB4PSIyNyIgeT0iMjA5LjIwMzEiPndlYnNpdGVVcmw/OiBzdHJpbmc8L3RleHQ+PGVsbGlwc2UgY3g9IjE4IiBjeT0iMjE5Ljk0NTMiIGZpbGw9Im5vbmUiIHJ4PSIzIiByeT0iMyIgc3R5bGU9InN0cm9rZTojMDM4MDQ4O3N0cm9rZS13aWR0aDoxOyIvPjx0ZXh0IGZpbGw9IiMwMDAwMDAiIGZvbnQtZmFtaWx5PSJzYW5zLXNlcmlmIiBmb250LXNpemU9IjE0IiBsZW5ndGhBZGp1c3Q9InNwYWNpbmciIHRleHRMZW5ndGg9IjE0MCIgeD0iMjciIHk9IjIyNC4xODc1Ij5waG9uZU51bWJlcj86IHN0cmluZzwvdGV4dD48ZWxsaXBzZSBjeD0iMTgiIGN5PSIyMzQuOTI5NyIgZmlsbD0ibm9uZSIgcng9IjMiIHJ5PSIzIiBzdHlsZT0ic3Ryb2tlOiMwMzgwNDg7c3Ryb2tlLXdpZHRoOjE7Ii8+PHRleHQgZmlsbD0iIzAwMDAwMCIgZm9udC1mYW1pbHk9InNhbnMtc2VyaWYiIGZvbnQtc2l6ZT0iMTQiIGxlbmd0aEFkanVzdD0ic3BhY2luZyIgdGV4dExlbmd0aD0iMTEyIiB4PSIyNyIgeT0iMjM5LjE3MTkiPmFkZHJlc3M/OiBzdHJpbmc8L3RleHQ+PGVsbGlwc2UgY3g9IjE4IiBjeT0iMjQ5LjkxNDEiIGZpbGw9Im5vbmUiIHJ4PSIzIiByeT0iMyIgc3R5bGU9InN0cm9rZTojMDM4MDQ4O3N0cm9rZS13aWR0aDoxOyIvPjx0ZXh0IGZpbGw9IiMwMDAwMDAiIGZvbnQtZmFtaWx5PSJzYW5zLXNlcmlmIiBmb250LXNpemU9IjE0IiBsZW5ndGhBZGp1c3Q9InNwYWNpbmciIHRleHRMZW5ndGg9IjEwNSIgeD0iMjciIHk9IjI1NC4xNTYzIj5jcmVhdGVkQXQ6IERhdGU8L3RleHQ+PGxpbmUgc3R5bGU9InN0cm9rZTojMTgxODE4O3N0cm9rZS13aWR0aDowLjU7IiB4MT0iOCIgeDI9IjE3MiIgeTE9IjI1OS45MDYzIiB5Mj0iMjU5LjkwNjMiLz48L2c+PCEtLWNsYXNzIFN0b3JlV2l0aElkLS0+PGcgY2xhc3M9ImVudGl0eSIgZGF0YS1lbnRpdHk9IlN0b3JlV2l0aElkIiBkYXRhLXNvdXJjZS1saW5lPSI5IiBkYXRhLXVpZD0iZW50MDAwMyIgaWQ9ImVudGl0eV9TdG9yZVdpdGhJZCI+PHJlY3QgZmlsbD0iI0YxRjFGMSIgaGVpZ2h0PSI2Mi45ODQ0IiByeD0iMi41IiByeT0iMi41IiBzdHlsZT0ic3Ryb2tlOiMxODE4MTg7c3Ryb2tlLXdpZHRoOjAuNTsiIHdpZHRoPSIxMTciIHg9IjMxLjUiIHk9IjciLz48ZWxsaXBzZSBjeD0iNTAuMSIgY3k9IjIzIiBmaWxsPSIjQUREMUIyIiByeD0iMTEiIHJ5PSIxMSIgc3R5bGU9InN0cm9rZTojMTgxODE4O3N0cm9rZS13aWR0aDoxOyIvPjxwYXRoIGQ9Ik00Ny43MjUsMjcuMjUgTDQ3LjcyNSwyOSBMNTIuNjYyNSwyOSBMNTIuNjYyNSwyNy4yNSBMNDcuNzI1LDI3LjI1IFogTTQ4LjQxMjUsMjcuOTM3NSBRNDguNDEyNSwyNy45Mzc1IDQ4LjQxMjUsMTguNzUgTDQ2LjY2MjUsMTguNzUgUTQ2LjY2MjUsMTguNzUgNDYuNjYyNSwyNy45Mzc1IEw0OC40MTI1LDI3LjkzNzUgWiBNNTEuOTc1LDI3LjkzNzUgTDUzLjcyNSwyNy45Mzc1IFE1My43MjUsMjcuOTM3NSA1My43MjUsMjUuMTI1IEw1MS45NzUsMjUuMTI1IFE1MS45NzUsMjUuMTI1IDUxLjk3NSwyNy45Mzc1IFogTTUxLjk3NSwxOC43NSBRNTEuOTc1LDE4Ljc1IDUxLjk3NSwyMS41NjI1IEw1My43MjUsMjEuNTYyNSBRNTMuNzI1LDIxLjU2MjUgNTMuNzI1LDE4Ljc1IEw1MS45NzUsMTguNzUgWiBNNDcuNzI1LDE5LjQzNzUgTDUyLjY2MjUsMTkuNDM3NSBMNTIuNjYyNSwxNy42ODc1IEw0Ny43MjUsMTcuNjg3NSBMNDcuNzI1LDE5LjQzNzUgWiAiIGZpbGw9IiMwMDAwMDAiLz48dGV4dCBmaWxsPSIjMDAwMDAwIiBmb250LWZhbWlseT0ic2Fucy1zZXJpZiIgZm9udC1zaXplPSIxNCIgbGVuZ3RoQWRqdXN0PSJzcGFjaW5nIiB0ZXh0TGVuZ3RoPSI3NyIgeD0iNjQuOSIgeT0iMjguNzQyMiI+U3RvcmVXaXRoSWQ8L3RleHQ+PGxpbmUgc3R5bGU9InN0cm9rZTojMTgxODE4O3N0cm9rZS13aWR0aDowLjU7IiB4MT0iMzIuNSIgeDI9IjE0Ny41IiB5MT0iMzkiIHkyPSIzOSIvPjxlbGxpcHNlIGN4PSI0Mi41IiBjeT0iNTEuOTkyMiIgZmlsbD0ibm9uZSIgcng9IjMiIHJ5PSIzIiBzdHlsZT0ic3Ryb2tlOiMwMzgwNDg7c3Ryb2tlLXdpZHRoOjE7Ii8+PHRleHQgZmlsbD0iIzAwMDAwMCIgZm9udC1mYW1pbHk9InNhbnMtc2VyaWYiIGZvbnQtc2l6ZT0iMTQiIGxlbmd0aEFkanVzdD0ic3BhY2luZyIgdGV4dExlbmd0aD0iOTEiIHg9IjUxLjUiIHk9IjU2LjIzNDQiPl9pZDogT2JqZWN0SWQ8L3RleHQ+PGxpbmUgc3R5bGU9InN0cm9rZTojMTgxODE4O3N0cm9rZS13aWR0aDowLjU7IiB4MT0iMzIuNSIgeDI9IjE0Ny41IiB5MT0iNjEuOTg0NCIgeTI9IjYxLjk4NDQiLz48L2c+PCEtLWxpbmsgU3RvcmVXaXRoSWQgdG8gU3RvcmUtLT48ZyBjbGFzcz0ibGluayIgZGF0YS1lbnRpdHktMT0iU3RvcmVXaXRoSWQiIGRhdGEtZW50aXR5LTI9IlN0b3JlIiBkYXRhLXNvdXJjZS1saW5lPSIxMiIgZGF0YS11aWQ9ImxuazQiIGlkPSJsaW5rX1N0b3JlV2l0aElkX1N0b3JlIj48cGF0aCBjb2RlTGluZT0iMTIiIGQ9Ik05MCw3MC4wNiBDOTAsODcuMDYgOTAsOTAuOTUgOTAsMTExLjc5IiBmaWxsPSJub25lIiBpZD0iU3RvcmVXaXRoSWQtdG8tU3RvcmUiIHN0eWxlPSJzdHJva2U6IzE4MTgxODtzdHJva2Utd2lkdGg6MTsiLz48cG9seWdvbiBmaWxsPSJub25lIiBwb2ludHM9IjkwLDEyOS43OSw5NiwxMTEuNzksODQsMTExLjc5LDkwLDEyOS43OSIgc3R5bGU9InN0cm9rZTojMTgxODE4O3N0cm9rZS13aWR0aDoxOyIvPjx0ZXh0IGZpbGw9IiMwMDAwMDAiIGZvbnQtZmFtaWx5PSJzYW5zLXNlcmlmIiBmb250LXNpemU9IjEzIiBsZW5ndGhBZGp1c3Q9InNwYWNpbmciIHRleHRMZW5ndGg9IjYuNSIgeD0iODMuNDMyOCIgeT0iOTAuMjk0OCI+MTwvdGV4dD48dGV4dCBmaWxsPSIjMDAwMDAwIiBmb250LWZhbWlseT0ic2Fucy1zZXJpZiIgZm9udC1zaXplPSIxMyIgbGVuZ3RoQWRqdXN0PSJzcGFjaW5nIiB0ZXh0TGVuZ3RoPSI2LjUiIHg9IjgzLjY4MiIgeT0iMTIwLjM4MzQiPjE8L3RleHQ+PC9nPjwhLS1TUkM9W0xPd24zaThtMzRKdFY4Tkw1TkxXcEcxMk9rYTIwd2VPS0g5UkRBWERBams4MFZYdElYYmVqZFZsUmhaR0VuNHVRTVEyZm01TzlKVUcxTDZFd1ZoREkxOHVaWGZwc1l4eld4bjRmUFJ4R2V6VEpkSXUzdnd1eTB3SElRSG1XU2FmdUt1angyU21SbkYtUnl2SGttUF9kb3VIQkhwelpPOHNFQ3NNV3NmVEdMc19EWkZDbkdTMF0tLT48L2c+PC9zdmc+;" vertex="1" parent="1">
            <mxGeometry x="-1040" y="-72" width="180" height="274" as="geometry" />
          </mxCell>
        </UserObject>
        <UserObject label="" plantUmlData="{&quot;data&quot;:&quot;@startuml\nentity User\nentity Post {\n  +author: ObjectId (ref User)\n  +mainImageUrl: string\n  +description: string\n  +comments: Comment[]\n  +createdAt: Date\n}\nentity Comment {\n  +author: ObjectId (ref User)\n  +content: string\n  +createdAt: Date\n}\nPost \&quot;1\&quot; o-- \&quot;1\&quot; Comment : aggregates\nPost \&quot;*\&quot; }|--|| \&quot;1\&quot; User : posts\nComment \&quot;*\&quot; }|--|| \&quot;1\&quot; User : comments\n@enduml&quot;,&quot;format&quot;:&quot;svg&quot;}" id="Pc-rXo_lRMbQFWNjcUTP-128">
          <mxCell style="shape=image;noLabel=1;verticalAlign=top;aspect=fixed;imageAspect=0;image=data:image/svg+xml,PHN2ZyB4bWxucz0iaHR0cDovL3d3dy53My5vcmcvMjAwMC9zdmciIHhtbG5zOnhsaW5rPSJodHRwOi8vd3d3LnczLm9yZy8xOTk5L3hsaW5rIiBjb250ZW50U3R5bGVUeXBlPSJ0ZXh0L2NzcyIgZGF0YS1kaWFncmFtLXR5cGU9IkNMQVNTIiBoZWlnaHQ9IjQyOHB4IiBwcmVzZXJ2ZUFzcGVjdFJhdGlvPSJub25lIiBzdHlsZT0id2lkdGg6Mzc3cHg7aGVpZ2h0OjQyOHB4O2JhY2tncm91bmQ6I0ZGRkZGRjsiIHZlcnNpb249IjEuMSIgdmlld0JveD0iMCAwIDM3NyA0MjgiIHdpZHRoPSIzNzdweCIgem9vbUFuZFBhbj0ibWFnbmlmeSI+PGRlZnMvPjxnPjwhLS1jbGFzcyBVc2VyLS0+PGcgY2xhc3M9ImVudGl0eSIgZGF0YS1lbnRpdHk9IlVzZXIiIGRhdGEtc291cmNlLWxpbmU9IjEiIGRhdGEtdWlkPSJlbnQwMDAyIiBpZD0iZW50aXR5X1VzZXIiPjxyZWN0IGZpbGw9IiNGMUYxRjEiIGhlaWdodD0iNDgiIHJ4PSIyLjUiIHJ5PSIyLjUiIHN0eWxlPSJzdHJva2U6IzE4MTgxODtzdHJva2Utd2lkdGg6MC41OyIgd2lkdGg9IjYwIiB4PSI4NC41IiB5PSIzNzMiLz48ZWxsaXBzZSBjeD0iOTkuNSIgY3k9IjM4OSIgZmlsbD0iI0FERDFCMiIgcng9IjExIiByeT0iMTEiIHN0eWxlPSJzdHJva2U6IzE4MTgxODtzdHJva2Utd2lkdGg6MTsiLz48cGF0aCBkPSJNMTAzLjEyNSwzOTUgTDEwMy4xMjUsMzkzLjI1IEw5Ny44MTI1LDM5My4yNSBROTcuODEyNSwzOTMuMjUgOTcuODEyNSwzODkuNjg3NSBMMTAyLjA2MjUsMzg5LjY4NzUgTDEwMi4wNjI1LDM4Ny45Mzc1IEw5Ny44MTI1LDM4Ny45Mzc1IEw5Ny44MTI1LDM4NS40Mzc1IEwxMDMuMTI1LDM4NS40Mzc1IEwxMDMuMTI1LDM4My42ODc1IEw5Ni4wNjI1LDM4My42ODc1IFE5Ni4wNjI1LDM4My42ODc1IDk2LjA2MjUsMzk1IEwxMDMuMTI1LDM5NSBaICIgZmlsbD0iIzAwMDAwMCIvPjx0ZXh0IGZpbGw9IiMwMDAwMDAiIGZvbnQtZmFtaWx5PSJzYW5zLXNlcmlmIiBmb250LXNpemU9IjE0IiBsZW5ndGhBZGp1c3Q9InNwYWNpbmciIHRleHRMZW5ndGg9IjI4IiB4PSIxMTMuNSIgeT0iMzk0Ljc0MjIiPlVzZXI8L3RleHQ+PGxpbmUgc3R5bGU9InN0cm9rZTojMTgxODE4O3N0cm9rZS13aWR0aDowLjU7IiB4MT0iODUuNSIgeDI9IjE0My41IiB5MT0iNDA1IiB5Mj0iNDA1Ii8+PGxpbmUgc3R5bGU9InN0cm9rZTojMTgxODE4O3N0cm9rZS13aWR0aDowLjU7IiB4MT0iODUuNSIgeDI9IjE0My41IiB5MT0iNDEzIiB5Mj0iNDEzIi8+PC9nPjwhLS1jbGFzcyBQb3N0LS0+PGcgY2xhc3M9ImVudGl0eSIgZGF0YS1lbnRpdHk9IlBvc3QiIGRhdGEtc291cmNlLWxpbmU9IjIiIGRhdGEtdWlkPSJlbnQwMDAzIiBpZD0iZW50aXR5X1Bvc3QiPjxyZWN0IGZpbGw9IiNGMUYxRjEiIGhlaWdodD0iMTIyLjkyMTkiIHJ4PSIyLjUiIHJ5PSIyLjUiIHN0eWxlPSJzdHJva2U6IzE4MTgxODtzdHJva2Utd2lkdGg6MC41OyIgd2lkdGg9IjIxNSIgeD0iNyIgeT0iNyIvPjxlbGxpcHNlIGN4PSI5Ni4yNSIgY3k9IjIzIiBmaWxsPSIjQUREMUIyIiByeD0iMTEiIHJ5PSIxMSIgc3R5bGU9InN0cm9rZTojMTgxODE4O3N0cm9rZS13aWR0aDoxOyIvPjxwYXRoIGQ9Ik05OS44NzUsMjkgTDk5Ljg3NSwyNy4yNSBMOTQuNTYyNSwyNy4yNSBROTQuNTYyNSwyNy4yNSA5NC41NjI1LDIzLjY4NzUgTDk4LjgxMjUsMjMuNjg3NSBMOTguODEyNSwyMS45Mzc1IEw5NC41NjI1LDIxLjkzNzUgTDk0LjU2MjUsMTkuNDM3NSBMOTkuODc1LDE5LjQzNzUgTDk5Ljg3NSwxNy42ODc1IEw5Mi44MTI1LDE3LjY4NzUgUTkyLjgxMjUsMTcuNjg3NSA5Mi44MTI1LDI5IEw5OS44NzUsMjkgWiAiIGZpbGw9IiMwMDAwMDAiLz48dGV4dCBmaWxsPSIjMDAwMDAwIiBmb250LWZhbWlseT0ic2Fucy1zZXJpZiIgZm9udC1zaXplPSIxNCIgbGVuZ3RoQWRqdXN0PSJzcGFjaW5nIiB0ZXh0TGVuZ3RoPSIyOCIgeD0iMTE2Ljc1IiB5PSIyOC43NDIyIj5Qb3N0PC90ZXh0PjxsaW5lIHN0eWxlPSJzdHJva2U6IzE4MTgxODtzdHJva2Utd2lkdGg6MC41OyIgeDE9IjgiIHgyPSIyMjEiIHkxPSIzOSIgeTI9IjM5Ii8+PGVsbGlwc2UgY3g9IjE4IiBjeT0iNTEuOTkyMiIgZmlsbD0ibm9uZSIgcng9IjMiIHJ5PSIzIiBzdHlsZT0ic3Ryb2tlOiMwMzgwNDg7c3Ryb2tlLXdpZHRoOjE7Ii8+PHRleHQgZmlsbD0iIzAwMDAwMCIgZm9udC1mYW1pbHk9InNhbnMtc2VyaWYiIGZvbnQtc2l6ZT0iMTQiIGxlbmd0aEFkanVzdD0ic3BhY2luZyIgdGV4dExlbmd0aD0iMTQwIiB4PSIyNyIgeT0iNTYuMjM0NCI+bWFpbkltYWdlVXJsOiBzdHJpbmc8L3RleHQ+PGVsbGlwc2UgY3g9IjE4IiBjeT0iNjYuOTc2NiIgZmlsbD0ibm9uZSIgcng9IjMiIHJ5PSIzIiBzdHlsZT0ic3Ryb2tlOiMwMzgwNDg7c3Ryb2tlLXdpZHRoOjE7Ii8+PHRleHQgZmlsbD0iIzAwMDAwMCIgZm9udC1mYW1pbHk9InNhbnMtc2VyaWYiIGZvbnQtc2l6ZT0iMTQiIGxlbmd0aEFkanVzdD0ic3BhY2luZyIgdGV4dExlbmd0aD0iMTMzIiB4PSIyNyIgeT0iNzEuMjE4OCI+ZGVzY3JpcHRpb246IHN0cmluZzwvdGV4dD48ZWxsaXBzZSBjeD0iMTgiIGN5PSI4MS45NjA5IiBmaWxsPSJub25lIiByeD0iMyIgcnk9IjMiIHN0eWxlPSJzdHJva2U6IzAzODA0ODtzdHJva2Utd2lkdGg6MTsiLz48dGV4dCBmaWxsPSIjMDAwMDAwIiBmb250LWZhbWlseT0ic2Fucy1zZXJpZiIgZm9udC1zaXplPSIxNCIgbGVuZ3RoQWRqdXN0PSJzcGFjaW5nIiB0ZXh0TGVuZ3RoPSIxMzMiIHg9IjI3IiB5PSI4Ni4yMDMxIj5jb21tZW50czogQ29tbWVudFtdPC90ZXh0PjxlbGxpcHNlIGN4PSIxOCIgY3k9Ijk2Ljk0NTMiIGZpbGw9Im5vbmUiIHJ4PSIzIiByeT0iMyIgc3R5bGU9InN0cm9rZTojMDM4MDQ4O3N0cm9rZS13aWR0aDoxOyIvPjx0ZXh0IGZpbGw9IiMwMDAwMDAiIGZvbnQtZmFtaWx5PSJzYW5zLXNlcmlmIiBmb250LXNpemU9IjE0IiBsZW5ndGhBZGp1c3Q9InNwYWNpbmciIHRleHRMZW5ndGg9IjEwNSIgeD0iMjciIHk9IjEwMS4xODc1Ij5jcmVhdGVkQXQ6IERhdGU8L3RleHQ+PGxpbmUgc3R5bGU9InN0cm9rZTojMTgxODE4O3N0cm9rZS13aWR0aDowLjU7IiB4MT0iOCIgeDI9IjIyMSIgeTE9IjEwNi45Mzc1IiB5Mj0iMTA2LjkzNzUiLz48ZWxsaXBzZSBjeD0iMTgiIGN5PSIxMTkuOTI5NyIgZmlsbD0iIzg0QkU4NCIgcng9IjMiIHJ5PSIzIiBzdHlsZT0ic3Ryb2tlOiMwMzgwNDg7c3Ryb2tlLXdpZHRoOjE7Ii8+PHRleHQgZmlsbD0iIzAwMDAwMCIgZm9udC1mYW1pbHk9InNhbnMtc2VyaWYiIGZvbnQtc2l6ZT0iMTQiIGxlbmd0aEFkanVzdD0ic3BhY2luZyIgdGV4dExlbmd0aD0iMTg5IiB4PSIyNyIgeT0iMTI0LjE3MTkiPmF1dGhvcjogT2JqZWN0SWQgKHJlZiBVc2VyKTwvdGV4dD48L2c+PCEtLWNsYXNzIENvbW1lbnQtLT48ZyBjbGFzcz0iZW50aXR5IiBkYXRhLWVudGl0eT0iQ29tbWVudCIgZGF0YS1zb3VyY2UtbGluZT0iOSIgZGF0YS11aWQ9ImVudDAwMDQiIGlkPSJlbnRpdHlfQ29tbWVudCI+PHJlY3QgZmlsbD0iI0YxRjFGMSIgaGVpZ2h0PSI5Mi45NTMxIiByeD0iMi41IiByeT0iMi41IiBzdHlsZT0ic3Ryb2tlOiMxODE4MTg7c3Ryb2tlLXdpZHRoOjAuNTsiIHdpZHRoPSIyMTUiIHg9IjE1NSIgeT0iMjA1Ii8+PGVsbGlwc2UgY3g9IjIzMy43NSIgY3k9IjIyMSIgZmlsbD0iI0FERDFCMiIgcng9IjExIiByeT0iMTEiIHN0eWxlPSJzdHJva2U6IzE4MTgxODtzdHJva2Utd2lkdGg6MTsiLz48cGF0aCBkPSJNMjM3LjM3NSwyMjcgTDIzNy4zNzUsMjI1LjI1IEwyMzIuMDYyNSwyMjUuMjUgUTIzMi4wNjI1LDIyNS4yNSAyMzIuMDYyNSwyMjEuNjg3NSBMMjM2LjMxMjUsMjIxLjY4NzUgTDIzNi4zMTI1LDIxOS45Mzc1IEwyMzIuMDYyNSwyMTkuOTM3NSBMMjMyLjA2MjUsMjE3LjQzNzUgTDIzNy4zNzUsMjE3LjQzNzUgTDIzNy4zNzUsMjE1LjY4NzUgTDIzMC4zMTI1LDIxNS42ODc1IFEyMzAuMzEyNSwyMTUuNjg3NSAyMzAuMzEyNSwyMjcgTDIzNy4zNzUsMjI3IFogIiBmaWxsPSIjMDAwMDAwIi8+PHRleHQgZmlsbD0iIzAwMDAwMCIgZm9udC1mYW1pbHk9InNhbnMtc2VyaWYiIGZvbnQtc2l6ZT0iMTQiIGxlbmd0aEFkanVzdD0ic3BhY2luZyIgdGV4dExlbmd0aD0iNDkiIHg9IjI1NC4yNSIgeT0iMjI2Ljc0MjIiPkNvbW1lbnQ8L3RleHQ+PGxpbmUgc3R5bGU9InN0cm9rZTojMTgxODE4O3N0cm9rZS13aWR0aDowLjU7IiB4MT0iMTU2IiB4Mj0iMzY5IiB5MT0iMjM3IiB5Mj0iMjM3Ii8+PGVsbGlwc2UgY3g9IjE2NiIgY3k9IjI0OS45OTIyIiBmaWxsPSJub25lIiByeD0iMyIgcnk9IjMiIHN0eWxlPSJzdHJva2U6IzAzODA0ODtzdHJva2Utd2lkdGg6MTsiLz48dGV4dCBmaWxsPSIjMDAwMDAwIiBmb250LWZhbWlseT0ic2Fucy1zZXJpZiIgZm9udC1zaXplPSIxNCIgbGVuZ3RoQWRqdXN0PSJzcGFjaW5nIiB0ZXh0TGVuZ3RoPSIxMDUiIHg9IjE3NSIgeT0iMjU0LjIzNDQiPmNvbnRlbnQ6IHN0cmluZzwvdGV4dD48ZWxsaXBzZSBjeD0iMTY2IiBjeT0iMjY0Ljk3NjYiIGZpbGw9Im5vbmUiIHJ4PSIzIiByeT0iMyIgc3R5bGU9InN0cm9rZTojMDM4MDQ4O3N0cm9rZS13aWR0aDoxOyIvPjx0ZXh0IGZpbGw9IiMwMDAwMDAiIGZvbnQtZmFtaWx5PSJzYW5zLXNlcmlmIiBmb250LXNpemU9IjE0IiBsZW5ndGhBZGp1c3Q9InNwYWNpbmciIHRleHRMZW5ndGg9IjEwNSIgeD0iMTc1IiB5PSIyNjkuMjE4OCI+Y3JlYXRlZEF0OiBEYXRlPC90ZXh0PjxsaW5lIHN0eWxlPSJzdHJva2U6IzE4MTgxODtzdHJva2Utd2lkdGg6MC41OyIgeDE9IjE1NiIgeDI9IjM2OSIgeTE9IjI3NC45Njg4IiB5Mj0iMjc0Ljk2ODgiLz48ZWxsaXBzZSBjeD0iMTY2IiBjeT0iMjg3Ljk2MDkiIGZpbGw9IiM4NEJFODQiIHJ4PSIzIiByeT0iMyIgc3R5bGU9InN0cm9rZTojMDM4MDQ4O3N0cm9rZS13aWR0aDoxOyIvPjx0ZXh0IGZpbGw9IiMwMDAwMDAiIGZvbnQtZmFtaWx5PSJzYW5zLXNlcmlmIiBmb250LXNpemU9IjE0IiBsZW5ndGhBZGp1c3Q9InNwYWNpbmciIHRleHRMZW5ndGg9IjE4OSIgeD0iMTc1IiB5PSIyOTIuMjAzMSI+YXV0aG9yOiBPYmplY3RJZCAocmVmIFVzZXIpPC90ZXh0PjwvZz48IS0tcmV2ZXJzZSBsaW5rIFBvc3QgdG8gQ29tbWVudC0tPjxnIGNsYXNzPSJsaW5rIiBkYXRhLWVudGl0eS0xPSJQb3N0IiBkYXRhLWVudGl0eS0yPSJDb21tZW50IiBkYXRhLXNvdXJjZS1saW5lPSIxNCIgZGF0YS11aWQ9ImxuazUiIGlkPSJsaW5rX1Bvc3RfQ29tbWVudCI+PHBhdGggY29kZUxpbmU9IjE0IiBkPSJNMTcxLjU4NiwxMzkuMzA5OSBDMTkxLjU4NiwxNjMuNzY5OSAyMDYuNjgsMTgyLjIzIDIyNS4yNCwyMDQuOTMiIGZpbGw9Im5vbmUiIGlkPSJQb3N0LWJhY2t0by1Db21tZW50IiBzdHlsZT0ic3Ryb2tlOiMxODE4MTg7c3Ryb2tlLXdpZHRoOjE7Ii8+PHBvbHlnb24gZmlsbD0ibm9uZSIgcG9pbnRzPSIxNjMuOTksMTMwLjAyLDE2NC42OTE0LDEzNy4xOTY5LDE3MS41ODYsMTM5LjMwOTksMTcwLjg4NDYsMTMyLjEzMjksMTYzLjk5LDEzMC4wMiIgc3R5bGU9InN0cm9rZTojMTgxODE4O3N0cm9rZS13aWR0aDoxOyIvPjx0ZXh0IGZpbGw9IiMwMDAwMDAiIGZvbnQtZmFtaWx5PSJzYW5zLXNlcmlmIiBmb250LXNpemU9IjEzIiBsZW5ndGhBZGp1c3Q9InNwYWNpbmciIHRleHRMZW5ndGg9IjY1IiB4PSIxOTcuNSIgeT0iMTczLjI4OTEiPmFnZ3JlZ2F0ZXM8L3RleHQ+PHRleHQgZmlsbD0iIzAwMDAwMCIgZm9udC1mYW1pbHk9InNhbnMtc2VyaWYiIGZvbnQtc2l6ZT0iMTMiIGxlbmd0aEFkanVzdD0ic3BhY2luZyIgdGV4dExlbmd0aD0iNi41IiB4PSIxNjMuMzk0MyIgeT0iMTUwLjIzMTIiPjE8L3RleHQ+PHRleHQgZmlsbD0iIzAwMDAwMCIgZm9udC1mYW1pbHk9InNhbnMtc2VyaWYiIGZvbnQtc2l6ZT0iMTMiIGxlbmd0aEFkanVzdD0ic3BhY2luZyIgdGV4dExlbmd0aD0iNi41IiB4PSIyMTIuNjEzMyIgeT0iMTk1LjUwODkiPjE8L3RleHQ+PC9nPjwhLS1saW5rIFBvc3QgdG8gVXNlci0tPjxnIGNsYXNzPSJsaW5rIiBkYXRhLWVudGl0eS0xPSJQb3N0IiBkYXRhLWVudGl0eS0yPSJVc2VyIiBkYXRhLXNvdXJjZS1saW5lPSIxNSIgZGF0YS11aWQ9ImxuazYiIGlkPSJsaW5rX1Bvc3RfVXNlciI+PHBhdGggY29kZUxpbmU9IjE1IiBkPSJNMTA3LjQ1OTYsMTM4LjEwMDIgQzEwMy40Njk2LDE4NC4xNjAyIDEwMC4zMiwyNDEuMSAxMDMuNSwyOTggQzEwNC45MywzMjMuNjQgMTA3LjM4OCwzNDQuOTUyMSAxMTAuMDY4LDM2NC43NzIxIiBmaWxsPSJub25lIiBpZD0iUG9zdC1Vc2VyIiBzdHlsZT0ic3Ryb2tlOiMxODE4MTg7c3Ryb2tlLXdpZHRoOjE7Ii8+PGxpbmUgc3R5bGU9InN0cm9rZTojMTgxODE4O3N0cm9rZS13aWR0aDoxOyIgeDE9IjEwNy40NTk2IiB4Mj0iMTAyLjE3MjQiIHkxPSIxMzguMTAwMiIgeTI9IjEyOS42MTIyIi8+PGxpbmUgc3R5bGU9InN0cm9rZTojMTgxODE4O3N0cm9rZS13aWR0aDoxOyIgeDE9IjEwNy40NTk2IiB4Mj0iMTE0LjEyNzYiIHkxPSIxMzguMTAwMiIgeTI9IjEzMC42NDc4Ii8+PGxpbmUgc3R5bGU9InN0cm9rZTojMTgxODE4O3N0cm9rZS13aWR0aDoxOyIgeDE9IjEwNy40NTk2IiB4Mj0iMTA4LjE1IiB5MT0iMTM4LjEwMDIiIHkyPSIxMzAuMTMiLz48bGluZSBzdHlsZT0ic3Ryb2tlOiMxODE4MTg7c3Ryb2tlLXdpZHRoOjE7IiB4MT0iMTAzLjMwMTkiIHgyPSIxMTEuMjcyIiB5MT0iMTM5Ljc0NzUiIHkyPSIxNDAuNDM3OSIvPjxsaW5lIHN0eWxlPSJzdHJva2U6IzE4MTgxODtzdHJva2Utd2lkdGg6MTsiIHgxPSIxMTQuNTY3OSIgeDI9IjEwNi42NDAxIiB5MT0iMzY4LjIwMDEiIHkyPSIzNjkuMjcyMSIvPjxsaW5lIHN0eWxlPSJzdHJva2U6IzE4MTgxODtzdHJva2Utd2lkdGg6MTsiIHgxPSIxMTQuMTY1OSIgeDI9IjEwNi4yMzgxIiB5MT0iMzY1LjIyNzEiIHkyPSIzNjYuMjk5MSIvPjxsaW5lIHN0eWxlPSJzdHJva2U6IzE4MTgxODtzdHJva2Utd2lkdGg6MTsiIHgxPSIxMTAuMDY4IiB4Mj0iMTExLjE0IiB5MT0iMzY0Ljc3MjEiIHkyPSIzNzIuNyIvPjx0ZXh0IGZpbGw9IiMwMDAwMDAiIGZvbnQtZmFtaWx5PSJzYW5zLXNlcmlmIiBmb250LXNpemU9IjEzIiBsZW5ndGhBZGp1c3Q9InNwYWNpbmciIHRleHRMZW5ndGg9IjMyLjUiIHg9IjEwNC41IiB5PSIyNTcuMjg5MSI+cG9zdHM8L3RleHQ+PHRleHQgZmlsbD0iIzAwMDAwMCIgZm9udC1mYW1pbHk9InNhbnMtc2VyaWYiIGZvbnQtc2l6ZT0iMTMiIGxlbmd0aEFkanVzdD0ic3BhY2luZyIgdGV4dExlbmd0aD0iNi41IiB4PSIxMDEuMDk3OCIgeT0iMTUwLjM1NCI+KjwvdGV4dD48dGV4dCBmaWxsPSIjMDAwMDAwIiBmb250LWZhbWlseT0ic2Fucy1zZXJpZiIgZm9udC1zaXplPSIxMyIgbGVuZ3RoQWRqdXN0PSJzcGFjaW5nIiB0ZXh0TGVuZ3RoPSI2LjUiIHg9IjEwMy40MjE2IiB5PSIzNjMuNDU1MSI+MTwvdGV4dD48L2c+PCEtLWxpbmsgQ29tbWVudCB0byBVc2VyLS0+PGcgY2xhc3M9ImxpbmsiIGRhdGEtZW50aXR5LTE9IkNvbW1lbnQiIGRhdGEtZW50aXR5LTI9IlVzZXIiIGRhdGEtc291cmNlLWxpbmU9IjE2IiBkYXRhLXVpZD0ibG5rNyIgaWQ9ImxpbmtfQ29tbWVudF9Vc2VyIj48cGF0aCBjb2RlTGluZT0iMTYiIGQ9Ik0yMDkuNTE3MiwzMDMuODY5NiBDMTgzLjk3NzIsMzI4LjYzOTYgMTY0Ljk5MjIsMzQ3LjAzOTggMTQ0LjMwMjIsMzY3LjEwOTgiIGZpbGw9Im5vbmUiIGlkPSJDb21tZW50LVVzZXIiIHN0eWxlPSJzdHJva2U6IzE4MTgxODtzdHJva2Utd2lkdGg6MTsiLz48bGluZSBzdHlsZT0ic3Ryb2tlOiMxODE4MTg7c3Ryb2tlLXdpZHRoOjE7IiB4MT0iMjA5LjUxNzIiIHgyPSIyMTEuMDgyOCIgeTE9IjMwMy44Njk2IiB5Mj0iMjkzLjk5MjkiLz48bGluZSBzdHlsZT0ic3Ryb2tlOiMxODE4MTg7c3Ryb2tlLXdpZHRoOjE7IiB4MT0iMjA5LjUxNzIiIHgyPSIyMTkuNDM3MiIgeTE9IjMwMy44Njk2IiB5Mj0iMzAyLjYwNzEiLz48bGluZSBzdHlsZT0ic3Ryb2tlOiMxODE4MTg7c3Ryb2tlLXdpZHRoOjE7IiB4MT0iMjA5LjUxNzIiIHgyPSIyMTUuMjYiIHkxPSIzMDMuODY5NiIgeTI9IjI5OC4zIi8+PGxpbmUgc3R5bGU9InN0cm9rZTojMTgxODE4O3N0cm9rZS13aWR0aDoxOyIgeDE9IjIwNS4yOTY3IiB4Mj0iMjEwLjg2NjQiIHkxPSIzMDIuMzkwNiIgeTI9IjMwOC4xMzM0Ii8+PGxpbmUgc3R5bGU9InN0cm9rZTojMTgxODE4O3N0cm9rZS13aWR0aDoxOyIgeDE9IjE0NC4yMTYyIiB4Mj0iMTM4LjY0NiIgeTE9IjM3Mi43NjYiIHkyPSIzNjcuMDIzOCIvPjxsaW5lIHN0eWxlPSJzdHJva2U6IzE4MTgxODtzdHJva2Utd2lkdGg6MTsiIHgxPSIxNDYuMzY5NSIgeDI9IjE0MC43OTk0IiB5MT0iMzcwLjY3NzIiIHkyPSIzNjQuOTM1Ii8+PGxpbmUgc3R5bGU9InN0cm9rZTojMTgxODE4O3N0cm9rZS13aWR0aDoxOyIgeDE9IjE0NC4zMDIyIiB4Mj0iMTM4LjU2IiB5MT0iMzY3LjEwOTgiIHkyPSIzNzIuNjgiLz48dGV4dCBmaWxsPSIjMDAwMDAwIiBmb250LWZhbWlseT0ic2Fucy1zZXJpZiIgZm9udC1zaXplPSIxMyIgbGVuZ3RoQWRqdXN0PSJzcGFjaW5nIiB0ZXh0TGVuZ3RoPSI1MiIgeD0iMTg0LjUiIHk9IjM0MS4yODkxIj5jb21tZW50czwvdGV4dD48dGV4dCBmaWxsPSIjMDAwMDAwIiBmb250LWZhbWlseT0ic2Fucy1zZXJpZiIgZm9udC1zaXplPSIxMyIgbGVuZ3RoQWRqdXN0PSJzcGFjaW5nIiB0ZXh0TGVuZ3RoPSI2LjUiIHg9IjIwMi4yMzAyIiB5PSIzMTguMTUxOSI+KjwvdGV4dD48dGV4dCBmaWxsPSIjMDAwMDAwIiBmb250LWZhbWlseT0ic2Fucy1zZXJpZiIgZm9udC1zaXplPSIxMyIgbGVuZ3RoQWRqdXN0PSJzcGFjaW5nIiB0ZXh0TGVuZ3RoPSI2LjUiIHg9IjEzOC41NTM0IiB5PSIzNjMuNDI5NSI+MTwvdGV4dD48L2c+PCEtLVNSQz1bWk8tejNpOG0zOEp0RjhOTFlIemJPQ3M2T0VhNElvVjQ0NThKV2NYSTlNUDBqRXpFY1pPSTIwT2NkeXdWVkpQUUNsSTBBZzFkRUVnejJtSEYxaDJLVHhldUJzMXRrZ0FZaWVRUG50RFl2cUV4YVNRTVpUSE8tUGswR0R2T0ZWV3Ixa0xESXlSUFRya3ZmZWFIR1MxY0w4VFppWnJBbWRmRDBoUEhpM3hWQ0w1X2RRQVNmU1gtbjd0akpPeUxnbThTdndkYzEwNUlRdXl3T2M2WTVXTnE3VVRUYnkwWDlyOWpSME1NZnR1cC1TaU5dLS0+PC9nPjwvc3ZnPg==;" vertex="1" parent="1">
            <mxGeometry x="-634" y="-810" width="377" height="428" as="geometry" />
          </mxCell>
        </UserObject>
        <UserObject label="" plantUmlData="{&#xa;  &quot;data&quot;: &quot;@startuml\nentity Store {\n  +name: string (unique)\n  +description: string\n  +websiteUrl: string\n  +phoneNumber: string\n  +address: string\n  +createdAt: date\n}\n@enduml&quot;,&#xa;  &quot;format&quot;: &quot;svg&quot;&#xa;}" id="Pc-rXo_lRMbQFWNjcUTP-129">
          <mxCell style="shape=image;noLabel=1;verticalAlign=top;aspect=fixed;imageAspect=0;image=data:image/svg+xml,PHN2ZyB4bWxucz0iaHR0cDovL3d3dy53My5vcmcvMjAwMC9zdmciIHhtbG5zOnhsaW5rPSJodHRwOi8vd3d3LnczLm9yZy8xOTk5L3hsaW5rIiBjb250ZW50U3R5bGVUeXBlPSJ0ZXh0L2NzcyIgZGF0YS1kaWFncmFtLXR5cGU9IkNMQVNTIiBoZWlnaHQ9IjE1OHB4IiBwcmVzZXJ2ZUFzcGVjdFJhdGlvPSJub25lIiBzdHlsZT0id2lkdGg6MTk0cHg7aGVpZ2h0OjE1OHB4O2JhY2tncm91bmQ6I0ZGRkZGRjsiIHZlcnNpb249IjEuMSIgdmlld0JveD0iMCAwIDE5NCAxNTgiIHdpZHRoPSIxOTRweCIgem9vbUFuZFBhbj0ibWFnbmlmeSI+PGRlZnMvPjxnPjwhLS1jbGFzcyBTdG9yZS0tPjxnIGNsYXNzPSJlbnRpdHkiIGRhdGEtZW50aXR5PSJTdG9yZSIgZGF0YS1zb3VyY2UtbGluZT0iMSIgZGF0YS11aWQ9ImVudDAwMDIiIGlkPSJlbnRpdHlfU3RvcmUiPjxyZWN0IGZpbGw9IiNGMUYxRjEiIGhlaWdodD0iMTM3LjkwNjMiIHJ4PSIyLjUiIHJ5PSIyLjUiIHN0eWxlPSJzdHJva2U6IzE4MTgxODtzdHJva2Utd2lkdGg6MC41OyIgd2lkdGg9IjE3MyIgeD0iNyIgeT0iNyIvPjxlbGxpcHNlIGN4PSI3MS43NSIgY3k9IjIzIiBmaWxsPSIjQUREMUIyIiByeD0iMTEiIHJ5PSIxMSIgc3R5bGU9InN0cm9rZTojMTgxODE4O3N0cm9rZS13aWR0aDoxOyIvPjxwYXRoIGQ9Ik03NS4zNzUsMjkgTDc1LjM3NSwyNy4yNSBMNzAuMDYyNSwyNy4yNSBRNzAuMDYyNSwyNy4yNSA3MC4wNjI1LDIzLjY4NzUgTDc0LjMxMjUsMjMuNjg3NSBMNzQuMzEyNSwyMS45Mzc1IEw3MC4wNjI1LDIxLjkzNzUgTDcwLjA2MjUsMTkuNDM3NSBMNzUuMzc1LDE5LjQzNzUgTDc1LjM3NSwxNy42ODc1IEw2OC4zMTI1LDE3LjY4NzUgUTY4LjMxMjUsMTcuNjg3NSA2OC4zMTI1LDI5IEw3NS4zNzUsMjkgWiAiIGZpbGw9IiMwMDAwMDAiLz48dGV4dCBmaWxsPSIjMDAwMDAwIiBmb250LWZhbWlseT0ic2Fucy1zZXJpZiIgZm9udC1zaXplPSIxNCIgbGVuZ3RoQWRqdXN0PSJzcGFjaW5nIiB0ZXh0TGVuZ3RoPSIzNSIgeD0iOTIuMjUiIHk9IjI4Ljc0MjIiPlN0b3JlPC90ZXh0PjxsaW5lIHN0eWxlPSJzdHJva2U6IzE4MTgxODtzdHJva2Utd2lkdGg6MC41OyIgeDE9IjgiIHgyPSIxNzkiIHkxPSIzOSIgeTI9IjM5Ii8+PGVsbGlwc2UgY3g9IjE4IiBjeT0iNTEuOTkyMiIgZmlsbD0ibm9uZSIgcng9IjMiIHJ5PSIzIiBzdHlsZT0ic3Ryb2tlOiMwMzgwNDg7c3Ryb2tlLXdpZHRoOjE7Ii8+PHRleHQgZmlsbD0iIzAwMDAwMCIgZm9udC1mYW1pbHk9InNhbnMtc2VyaWYiIGZvbnQtc2l6ZT0iMTQiIGxlbmd0aEFkanVzdD0ic3BhY2luZyIgdGV4dExlbmd0aD0iMTMzIiB4PSIyNyIgeT0iNTYuMjM0NCI+ZGVzY3JpcHRpb246IHN0cmluZzwvdGV4dD48ZWxsaXBzZSBjeD0iMTgiIGN5PSI2Ni45NzY2IiBmaWxsPSJub25lIiByeD0iMyIgcnk9IjMiIHN0eWxlPSJzdHJva2U6IzAzODA0ODtzdHJva2Utd2lkdGg6MTsiLz48dGV4dCBmaWxsPSIjMDAwMDAwIiBmb250LWZhbWlseT0ic2Fucy1zZXJpZiIgZm9udC1zaXplPSIxNCIgbGVuZ3RoQWRqdXN0PSJzcGFjaW5nIiB0ZXh0TGVuZ3RoPSIxMjYiIHg9IjI3IiB5PSI3MS4yMTg4Ij53ZWJzaXRlVXJsOiBzdHJpbmc8L3RleHQ+PGVsbGlwc2UgY3g9IjE4IiBjeT0iODEuOTYwOSIgZmlsbD0ibm9uZSIgcng9IjMiIHJ5PSIzIiBzdHlsZT0ic3Ryb2tlOiMwMzgwNDg7c3Ryb2tlLXdpZHRoOjE7Ii8+PHRleHQgZmlsbD0iIzAwMDAwMCIgZm9udC1mYW1pbHk9InNhbnMtc2VyaWYiIGZvbnQtc2l6ZT0iMTQiIGxlbmd0aEFkanVzdD0ic3BhY2luZyIgdGV4dExlbmd0aD0iMTMzIiB4PSIyNyIgeT0iODYuMjAzMSI+cGhvbmVOdW1iZXI6IHN0cmluZzwvdGV4dD48ZWxsaXBzZSBjeD0iMTgiIGN5PSI5Ni45NDUzIiBmaWxsPSJub25lIiByeD0iMyIgcnk9IjMiIHN0eWxlPSJzdHJva2U6IzAzODA0ODtzdHJva2Utd2lkdGg6MTsiLz48dGV4dCBmaWxsPSIjMDAwMDAwIiBmb250LWZhbWlseT0ic2Fucy1zZXJpZiIgZm9udC1zaXplPSIxNCIgbGVuZ3RoQWRqdXN0PSJzcGFjaW5nIiB0ZXh0TGVuZ3RoPSIxMDUiIHg9IjI3IiB5PSIxMDEuMTg3NSI+YWRkcmVzczogc3RyaW5nPC90ZXh0PjxlbGxpcHNlIGN4PSIxOCIgY3k9IjExMS45Mjk3IiBmaWxsPSJub25lIiByeD0iMyIgcnk9IjMiIHN0eWxlPSJzdHJva2U6IzAzODA0ODtzdHJva2Utd2lkdGg6MTsiLz48dGV4dCBmaWxsPSIjMDAwMDAwIiBmb250LWZhbWlseT0ic2Fucy1zZXJpZiIgZm9udC1zaXplPSIxNCIgbGVuZ3RoQWRqdXN0PSJzcGFjaW5nIiB0ZXh0TGVuZ3RoPSIxMDUiIHg9IjI3IiB5PSIxMTYuMTcxOSI+Y3JlYXRlZEF0OiBkYXRlPC90ZXh0PjxsaW5lIHN0eWxlPSJzdHJva2U6IzE4MTgxODtzdHJva2Utd2lkdGg6MC41OyIgeDE9IjgiIHgyPSIxNzkiIHkxPSIxMjEuOTIxOSIgeTI9IjEyMS45MjE5Ii8+PGVsbGlwc2UgY3g9IjE4IiBjeT0iMTM0LjkxNDEiIGZpbGw9IiM4NEJFODQiIHJ4PSIzIiByeT0iMyIgc3R5bGU9InN0cm9rZTojMDM4MDQ4O3N0cm9rZS13aWR0aDoxOyIvPjx0ZXh0IGZpbGw9IiMwMDAwMDAiIGZvbnQtZmFtaWx5PSJzYW5zLXNlcmlmIiBmb250LXNpemU9IjE0IiBsZW5ndGhBZGp1c3Q9InNwYWNpbmciIHRleHRMZW5ndGg9IjE0NyIgeD0iMjciIHk9IjEzOS4xNTYzIj5uYW1lOiBzdHJpbmcgKHVuaXF1ZSk8L3RleHQ+PC9nPjwhLS1TUkM9W0pTYjEyZUQwMzRSWGxRVjhxajhSa0ZDMnRPVzc2Q3JGNnoyQ0pKOEthVHhUa1laQ3hsNHpRNFppRDRHc3FENEd0Sk1qd0NaM0g5X0s1Zkx0bVVxUTM5ekRqZjJpX3RfbjF2REJPQklicmtzTDVPLW9KaDJRNHhGMWxRUlBhMEJTSHFWeVktUHgwVzAwXS0tPjwvZz48L3N2Zz4=;" vertex="1" parent="1">
            <mxGeometry x="-570" y="-50" width="194" height="158" as="geometry" />
          </mxCell>
        </UserObject>
        <UserObject label="" plantUmlData="{&quot;data&quot;:&quot;@startuml\nclass UserUnresolved {\n  +username: string\n  +password: string\n  +posts: PostUnresolved[]\n  +createdAt: Date\n}\nclass User {\n  +username: string\n  +password: string\n  +posts: Post[]\n  +createdAt: Date\n}\nUserUnresolved \&quot;1\&quot; *-- \&quot;*\&quot; PostUnresolved\nUser \&quot;1\&quot; *-- \&quot;*\&quot; Post\n@enduml&quot;,&quot;format&quot;:&quot;svg&quot;}" id="Pc-rXo_lRMbQFWNjcUTP-130">
          <mxCell style="shape=image;noLabel=1;verticalAlign=top;aspect=fixed;imageAspect=0;image=data:image/svg+xml,PHN2ZyB4bWxucz0iaHR0cDovL3d3dy53My5vcmcvMjAwMC9zdmciIHhtbG5zOnhsaW5rPSJodHRwOi8vd3d3LnczLm9yZy8xOTk5L3hsaW5rIiBjb250ZW50U3R5bGVUeXBlPSJ0ZXh0L2NzcyIgZGF0YS1kaWFncmFtLXR5cGU9IkNMQVNTIiBoZWlnaHQ9IjIzMHB4IiBwcmVzZXJ2ZUFzcGVjdFJhdGlvPSJub25lIiBzdHlsZT0id2lkdGg6Mzc0cHg7aGVpZ2h0OjIzMHB4O2JhY2tncm91bmQ6I0ZGRkZGRjsiIHZlcnNpb249IjEuMSIgdmlld0JveD0iMCAwIDM3NCAyMzAiIHdpZHRoPSIzNzRweCIgem9vbUFuZFBhbj0ibWFnbmlmeSI+PGRlZnMvPjxnPjwhLS1jbGFzcyBVc2VyVW5yZXNvbHZlZC0tPjxnIGNsYXNzPSJlbnRpdHkiIGRhdGEtZW50aXR5PSJVc2VyVW5yZXNvbHZlZCIgZGF0YS1zb3VyY2UtbGluZT0iMSIgZGF0YS11aWQ9ImVudDAwMDIiIGlkPSJlbnRpdHlfVXNlclVucmVzb2x2ZWQiPjxyZWN0IGZpbGw9IiNGMUYxRjEiIGhlaWdodD0iMTA3LjkzNzUiIHJ4PSIyLjUiIHJ5PSIyLjUiIHN0eWxlPSJzdHJva2U6IzE4MTgxODtzdHJva2Utd2lkdGg6MC41OyIgd2lkdGg9IjE4NyIgeD0iNyIgeT0iNyIvPjxlbGxpcHNlIGN4PSI0Ny42NSIgY3k9IjIzIiBmaWxsPSIjQUREMUIyIiByeD0iMTEiIHJ5PSIxMSIgc3R5bGU9InN0cm9rZTojMTgxODE4O3N0cm9rZS13aWR0aDoxOyIvPjxwYXRoIGQ9Ik00NS4yNzUsMjcuMjUgTDQ1LjI3NSwyOSBMNTAuMjEyNSwyOSBMNTAuMjEyNSwyNy4yNSBMNDUuMjc1LDI3LjI1IFogTTQ1Ljk2MjUsMjcuOTM3NSBRNDUuOTYyNSwyNy45Mzc1IDQ1Ljk2MjUsMTguNzUgTDQ0LjIxMjUsMTguNzUgUTQ0LjIxMjUsMTguNzUgNDQuMjEyNSwyNy45Mzc1IEw0NS45NjI1LDI3LjkzNzUgWiBNNDkuNTI1LDI3LjkzNzUgTDUxLjI3NSwyNy45Mzc1IFE1MS4yNzUsMjcuOTM3NSA1MS4yNzUsMjUuMTI1IEw0OS41MjUsMjUuMTI1IFE0OS41MjUsMjUuMTI1IDQ5LjUyNSwyNy45Mzc1IFogTTQ5LjUyNSwxOC43NSBRNDkuNTI1LDE4Ljc1IDQ5LjUyNSwyMS41NjI1IEw1MS4yNzUsMjEuNTYyNSBRNTEuMjc1LDIxLjU2MjUgNTEuMjc1LDE4Ljc1IEw0OS41MjUsMTguNzUgWiBNNDUuMjc1LDE5LjQzNzUgTDUwLjIxMjUsMTkuNDM3NSBMNTAuMjEyNSwxNy42ODc1IEw0NS4yNzUsMTcuNjg3NSBMNDUuMjc1LDE5LjQzNzUgWiAiIGZpbGw9IiMwMDAwMDAiLz48dGV4dCBmaWxsPSIjMDAwMDAwIiBmb250LWZhbWlseT0ic2Fucy1zZXJpZiIgZm9udC1zaXplPSIxNCIgbGVuZ3RoQWRqdXN0PSJzcGFjaW5nIiB0ZXh0TGVuZ3RoPSI5OCIgeD0iNjcuMzUiIHk9IjI4Ljc0MjIiPlVzZXJVbnJlc29sdmVkPC90ZXh0PjxsaW5lIHN0eWxlPSJzdHJva2U6IzE4MTgxODtzdHJva2Utd2lkdGg6MC41OyIgeDE9IjgiIHgyPSIxOTMiIHkxPSIzOSIgeTI9IjM5Ii8+PGVsbGlwc2UgY3g9IjE4IiBjeT0iNTEuOTkyMiIgZmlsbD0ibm9uZSIgcng9IjMiIHJ5PSIzIiBzdHlsZT0ic3Ryb2tlOiMwMzgwNDg7c3Ryb2tlLXdpZHRoOjE7Ii8+PHRleHQgZmlsbD0iIzAwMDAwMCIgZm9udC1mYW1pbHk9InNhbnMtc2VyaWYiIGZvbnQtc2l6ZT0iMTQiIGxlbmd0aEFkanVzdD0ic3BhY2luZyIgdGV4dExlbmd0aD0iMTEyIiB4PSIyNyIgeT0iNTYuMjM0NCI+dXNlcm5hbWU6IHN0cmluZzwvdGV4dD48ZWxsaXBzZSBjeD0iMTgiIGN5PSI2Ni45NzY2IiBmaWxsPSJub25lIiByeD0iMyIgcnk9IjMiIHN0eWxlPSJzdHJva2U6IzAzODA0ODtzdHJva2Utd2lkdGg6MTsiLz48dGV4dCBmaWxsPSIjMDAwMDAwIiBmb250LWZhbWlseT0ic2Fucy1zZXJpZiIgZm9udC1zaXplPSIxNCIgbGVuZ3RoQWRqdXN0PSJzcGFjaW5nIiB0ZXh0TGVuZ3RoPSIxMTIiIHg9IjI3IiB5PSI3MS4yMTg4Ij5wYXNzd29yZDogc3RyaW5nPC90ZXh0PjxlbGxpcHNlIGN4PSIxOCIgY3k9IjgxLjk2MDkiIGZpbGw9Im5vbmUiIHJ4PSIzIiByeT0iMyIgc3R5bGU9InN0cm9rZTojMDM4MDQ4O3N0cm9rZS13aWR0aDoxOyIvPjx0ZXh0IGZpbGw9IiMwMDAwMDAiIGZvbnQtZmFtaWx5PSJzYW5zLXNlcmlmIiBmb250LXNpemU9IjE0IiBsZW5ndGhBZGp1c3Q9InNwYWNpbmciIHRleHRMZW5ndGg9IjE2MSIgeD0iMjciIHk9Ijg2LjIwMzEiPnBvc3RzOiBQb3N0VW5yZXNvbHZlZFtdPC90ZXh0PjxlbGxpcHNlIGN4PSIxOCIgY3k9Ijk2Ljk0NTMiIGZpbGw9Im5vbmUiIHJ4PSIzIiByeT0iMyIgc3R5bGU9InN0cm9rZTojMDM4MDQ4O3N0cm9rZS13aWR0aDoxOyIvPjx0ZXh0IGZpbGw9IiMwMDAwMDAiIGZvbnQtZmFtaWx5PSJzYW5zLXNlcmlmIiBmb250LXNpemU9IjE0IiBsZW5ndGhBZGp1c3Q9InNwYWNpbmciIHRleHRMZW5ndGg9IjEwNSIgeD0iMjciIHk9IjEwMS4xODc1Ij5jcmVhdGVkQXQ6IERhdGU8L3RleHQ+PGxpbmUgc3R5bGU9InN0cm9rZTojMTgxODE4O3N0cm9rZS13aWR0aDowLjU7IiB4MT0iOCIgeDI9IjE5MyIgeTE9IjEwNi45Mzc1IiB5Mj0iMTA2LjkzNzUiLz48L2c+PCEtLWNsYXNzIFVzZXItLT48ZyBjbGFzcz0iZW50aXR5IiBkYXRhLWVudGl0eT0iVXNlciIgZGF0YS1zb3VyY2UtbGluZT0iNyIgZGF0YS11aWQ9ImVudDAwMDMiIGlkPSJlbnRpdHlfVXNlciI+PHJlY3QgZmlsbD0iI0YxRjFGMSIgaGVpZ2h0PSIxMDcuOTM3NSIgcng9IjIuNSIgcnk9IjIuNSIgc3R5bGU9InN0cm9rZTojMTgxODE4O3N0cm9rZS13aWR0aDowLjU7IiB3aWR0aD0iMTM4IiB4PSIyMjkuNSIgeT0iNyIvPjxlbGxpcHNlIGN4PSIyODAuMjUiIGN5PSIyMyIgZmlsbD0iI0FERDFCMiIgcng9IjExIiByeT0iMTEiIHN0eWxlPSJzdHJva2U6IzE4MTgxODtzdHJva2Utd2lkdGg6MTsiLz48cGF0aCBkPSJNMjc3Ljg3NSwyNy4yNSBMMjc3Ljg3NSwyOSBMMjgyLjgxMjUsMjkgTDI4Mi44MTI1LDI3LjI1IEwyNzcuODc1LDI3LjI1IFogTTI3OC41NjI1LDI3LjkzNzUgUTI3OC41NjI1LDI3LjkzNzUgMjc4LjU2MjUsMTguNzUgTDI3Ni44MTI1LDE4Ljc1IFEyNzYuODEyNSwxOC43NSAyNzYuODEyNSwyNy45Mzc1IEwyNzguNTYyNSwyNy45Mzc1IFogTTI4Mi4xMjUsMjcuOTM3NSBMMjgzLjg3NSwyNy45Mzc1IFEyODMuODc1LDI3LjkzNzUgMjgzLjg3NSwyNS4xMjUgTDI4Mi4xMjUsMjUuMTI1IFEyODIuMTI1LDI1LjEyNSAyODIuMTI1LDI3LjkzNzUgWiBNMjgyLjEyNSwxOC43NSBRMjgyLjEyNSwxOC43NSAyODIuMTI1LDIxLjU2MjUgTDI4My44NzUsMjEuNTYyNSBRMjgzLjg3NSwyMS41NjI1IDI4My44NzUsMTguNzUgTDI4Mi4xMjUsMTguNzUgWiBNMjc3Ljg3NSwxOS40Mzc1IEwyODIuODEyNSwxOS40Mzc1IEwyODIuODEyNSwxNy42ODc1IEwyNzcuODc1LDE3LjY4NzUgTDI3Ny44NzUsMTkuNDM3NSBaICIgZmlsbD0iIzAwMDAwMCIvPjx0ZXh0IGZpbGw9IiMwMDAwMDAiIGZvbnQtZmFtaWx5PSJzYW5zLXNlcmlmIiBmb250LXNpemU9IjE0IiBsZW5ndGhBZGp1c3Q9InNwYWNpbmciIHRleHRMZW5ndGg9IjI4IiB4PSIzMDAuNzUiIHk9IjI4Ljc0MjIiPlVzZXI8L3RleHQ+PGxpbmUgc3R5bGU9InN0cm9rZTojMTgxODE4O3N0cm9rZS13aWR0aDowLjU7IiB4MT0iMjMwLjUiIHgyPSIzNjYuNSIgeTE9IjM5IiB5Mj0iMzkiLz48ZWxsaXBzZSBjeD0iMjQwLjUiIGN5PSI1MS45OTIyIiBmaWxsPSJub25lIiByeD0iMyIgcnk9IjMiIHN0eWxlPSJzdHJva2U6IzAzODA0ODtzdHJva2Utd2lkdGg6MTsiLz48dGV4dCBmaWxsPSIjMDAwMDAwIiBmb250LWZhbWlseT0ic2Fucy1zZXJpZiIgZm9udC1zaXplPSIxNCIgbGVuZ3RoQWRqdXN0PSJzcGFjaW5nIiB0ZXh0TGVuZ3RoPSIxMTIiIHg9IjI0OS41IiB5PSI1Ni4yMzQ0Ij51c2VybmFtZTogc3RyaW5nPC90ZXh0PjxlbGxpcHNlIGN4PSIyNDAuNSIgY3k9IjY2Ljk3NjYiIGZpbGw9Im5vbmUiIHJ4PSIzIiByeT0iMyIgc3R5bGU9InN0cm9rZTojMDM4MDQ4O3N0cm9rZS13aWR0aDoxOyIvPjx0ZXh0IGZpbGw9IiMwMDAwMDAiIGZvbnQtZmFtaWx5PSJzYW5zLXNlcmlmIiBmb250LXNpemU9IjE0IiBsZW5ndGhBZGp1c3Q9InNwYWNpbmciIHRleHRMZW5ndGg9IjExMiIgeD0iMjQ5LjUiIHk9IjcxLjIxODgiPnBhc3N3b3JkOiBzdHJpbmc8L3RleHQ+PGVsbGlwc2UgY3g9IjI0MC41IiBjeT0iODEuOTYwOSIgZmlsbD0ibm9uZSIgcng9IjMiIHJ5PSIzIiBzdHlsZT0ic3Ryb2tlOiMwMzgwNDg7c3Ryb2tlLXdpZHRoOjE7Ii8+PHRleHQgZmlsbD0iIzAwMDAwMCIgZm9udC1mYW1pbHk9InNhbnMtc2VyaWYiIGZvbnQtc2l6ZT0iMTQiIGxlbmd0aEFkanVzdD0ic3BhY2luZyIgdGV4dExlbmd0aD0iOTEiIHg9IjI0OS41IiB5PSI4Ni4yMDMxIj5wb3N0czogUG9zdFtdPC90ZXh0PjxlbGxpcHNlIGN4PSIyNDAuNSIgY3k9Ijk2Ljk0NTMiIGZpbGw9Im5vbmUiIHJ4PSIzIiByeT0iMyIgc3R5bGU9InN0cm9rZTojMDM4MDQ4O3N0cm9rZS13aWR0aDoxOyIvPjx0ZXh0IGZpbGw9IiMwMDAwMDAiIGZvbnQtZmFtaWx5PSJzYW5zLXNlcmlmIiBmb250LXNpemU9IjE0IiBsZW5ndGhBZGp1c3Q9InNwYWNpbmciIHRleHRMZW5ndGg9IjEwNSIgeD0iMjQ5LjUiIHk9IjEwMS4xODc1Ij5jcmVhdGVkQXQ6IERhdGU8L3RleHQ+PGxpbmUgc3R5bGU9InN0cm9rZTojMTgxODE4O3N0cm9rZS13aWR0aDowLjU7IiB4MT0iMjMwLjUiIHgyPSIzNjYuNSIgeTE9IjEwNi45Mzc1IiB5Mj0iMTA2LjkzNzUiLz48L2c+PCEtLWNsYXNzIFBvc3RVbnJlc29sdmVkLS0+PGcgY2xhc3M9ImVudGl0eSIgZGF0YS1lbnRpdHk9IlBvc3RVbnJlc29sdmVkIiBkYXRhLXNvdXJjZS1saW5lPSIxMyIgZGF0YS11aWQ9ImVudDAwMDQiIGlkPSJlbnRpdHlfUG9zdFVucmVzb2x2ZWQiPjxyZWN0IGZpbGw9IiNGMUYxRjEiIGhlaWdodD0iNDgiIHJ4PSIyLjUiIHJ5PSIyLjUiIHN0eWxlPSJzdHJva2U6IzE4MTgxODtzdHJva2Utd2lkdGg6MC41OyIgd2lkdGg9IjEzMCIgeD0iMzUuNSIgeT0iMTc1Ii8+PGVsbGlwc2UgY3g9IjUwLjUiIGN5PSIxOTEiIGZpbGw9IiNBREQxQjIiIHJ4PSIxMSIgcnk9IjExIiBzdHlsZT0ic3Ryb2tlOiMxODE4MTg7c3Ryb2tlLXdpZHRoOjE7Ii8+PHBhdGggZD0iTTQ4LjEyNSwxOTUuMjUgTDQ4LjEyNSwxOTcgTDUzLjA2MjUsMTk3IEw1My4wNjI1LDE5NS4yNSBMNDguMTI1LDE5NS4yNSBaIE00OC44MTI1LDE5NS45Mzc1IFE0OC44MTI1LDE5NS45Mzc1IDQ4LjgxMjUsMTg2Ljc1IEw0Ny4wNjI1LDE4Ni43NSBRNDcuMDYyNSwxODYuNzUgNDcuMDYyNSwxOTUuOTM3NSBMNDguODEyNSwxOTUuOTM3NSBaIE01Mi4zNzUsMTk1LjkzNzUgTDU0LjEyNSwxOTUuOTM3NSBRNTQuMTI1LDE5NS45Mzc1IDU0LjEyNSwxOTMuMTI1IEw1Mi4zNzUsMTkzLjEyNSBRNTIuMzc1LDE5My4xMjUgNTIuMzc1LDE5NS45Mzc1IFogTTUyLjM3NSwxODYuNzUgUTUyLjM3NSwxODYuNzUgNTIuMzc1LDE4OS41NjI1IEw1NC4xMjUsMTg5LjU2MjUgUTU0LjEyNSwxODkuNTYyNSA1NC4xMjUsMTg2Ljc1IEw1Mi4zNzUsMTg2Ljc1IFogTTQ4LjEyNSwxODcuNDM3NSBMNTMuMDYyNSwxODcuNDM3NSBMNTMuMDYyNSwxODUuNjg3NSBMNDguMTI1LDE4NS42ODc1IEw0OC4xMjUsMTg3LjQzNzUgWiAiIGZpbGw9IiMwMDAwMDAiLz48dGV4dCBmaWxsPSIjMDAwMDAwIiBmb250LWZhbWlseT0ic2Fucy1zZXJpZiIgZm9udC1zaXplPSIxNCIgbGVuZ3RoQWRqdXN0PSJzcGFjaW5nIiB0ZXh0TGVuZ3RoPSI5OCIgeD0iNjQuNSIgeT0iMTk2Ljc0MjIiPlBvc3RVbnJlc29sdmVkPC90ZXh0PjxsaW5lIHN0eWxlPSJzdHJva2U6IzE4MTgxODtzdHJva2Utd2lkdGg6MC41OyIgeDE9IjM2LjUiIHgyPSIxNjQuNSIgeTE9IjIwNyIgeTI9IjIwNyIvPjxsaW5lIHN0eWxlPSJzdHJva2U6IzE4MTgxODtzdHJva2Utd2lkdGg6MC41OyIgeDE9IjM2LjUiIHgyPSIxNjQuNSIgeTE9IjIxNSIgeTI9IjIxNSIvPjwvZz48IS0tY2xhc3MgUG9zdC0tPjxnIGNsYXNzPSJlbnRpdHkiIGRhdGEtZW50aXR5PSJQb3N0IiBkYXRhLXNvdXJjZS1saW5lPSIxNCIgZGF0YS11aWQ9ImVudDAwMDYiIGlkPSJlbnRpdHlfUG9zdCI+PHJlY3QgZmlsbD0iI0YxRjFGMSIgaGVpZ2h0PSI0OCIgcng9IjIuNSIgcnk9IjIuNSIgc3R5bGU9InN0cm9rZTojMTgxODE4O3N0cm9rZS13aWR0aDowLjU7IiB3aWR0aD0iNjAiIHg9IjI2OC41IiB5PSIxNzUiLz48ZWxsaXBzZSBjeD0iMjgzLjUiIGN5PSIxOTEiIGZpbGw9IiNBREQxQjIiIHJ4PSIxMSIgcnk9IjExIiBzdHlsZT0ic3Ryb2tlOiMxODE4MTg7c3Ryb2tlLXdpZHRoOjE7Ii8+PHBhdGggZD0iTTI4MS4xMjUsMTk1LjI1IEwyODEuMTI1LDE5NyBMMjg2LjA2MjUsMTk3IEwyODYuMDYyNSwxOTUuMjUgTDI4MS4xMjUsMTk1LjI1IFogTTI4MS44MTI1LDE5NS45Mzc1IFEyODEuODEyNSwxOTUuOTM3NSAyODEuODEyNSwxODYuNzUgTDI4MC4wNjI1LDE4Ni43NSBRMjgwLjA2MjUsMTg2Ljc1IDI4MC4wNjI1LDE5NS45Mzc1IEwyODEuODEyNSwxOTUuOTM3NSBaIE0yODUuMzc1LDE5NS45Mzc1IEwyODcuMTI1LDE5NS45Mzc1IFEyODcuMTI1LDE5NS45Mzc1IDI4Ny4xMjUsMTkzLjEyNSBMMjg1LjM3NSwxOTMuMTI1IFEyODUuMzc1LDE5My4xMjUgMjg1LjM3NSwxOTUuOTM3NSBaIE0yODUuMzc1LDE4Ni43NSBRMjg1LjM3NSwxODYuNzUgMjg1LjM3NSwxODkuNTYyNSBMMjg3LjEyNSwxODkuNTYyNSBRMjg3LjEyNSwxODkuNTYyNSAyODcuMTI1LDE4Ni43NSBMMjg1LjM3NSwxODYuNzUgWiBNMjgxLjEyNSwxODcuNDM3NSBMMjg2LjA2MjUsMTg3LjQzNzUgTDI4Ni4wNjI1LDE4NS42ODc1IEwyODEuMTI1LDE4NS42ODc1IEwyODEuMTI1LDE4Ny40Mzc1IFogIiBmaWxsPSIjMDAwMDAwIi8+PHRleHQgZmlsbD0iIzAwMDAwMCIgZm9udC1mYW1pbHk9InNhbnMtc2VyaWYiIGZvbnQtc2l6ZT0iMTQiIGxlbmd0aEFkanVzdD0ic3BhY2luZyIgdGV4dExlbmd0aD0iMjgiIHg9IjI5Ny41IiB5PSIxOTYuNzQyMiI+UG9zdDwvdGV4dD48bGluZSBzdHlsZT0ic3Ryb2tlOiMxODE4MTg7c3Ryb2tlLXdpZHRoOjAuNTsiIHgxPSIyNjkuNSIgeDI9IjMyNy41IiB5MT0iMjA3IiB5Mj0iMjA3Ii8+PGxpbmUgc3R5bGU9InN0cm9rZTojMTgxODE4O3N0cm9rZS13aWR0aDowLjU7IiB4MT0iMjY5LjUiIHgyPSIzMjcuNSIgeTE9IjIxNSIgeTI9IjIxNSIvPjwvZz48IS0tcmV2ZXJzZSBsaW5rIFVzZXJVbnJlc29sdmVkIHRvIFBvc3RVbnJlc29sdmVkLS0+PGcgY2xhc3M9ImxpbmsiIGRhdGEtZW50aXR5LTE9IlVzZXJVbnJlc29sdmVkIiBkYXRhLWVudGl0eS0yPSJQb3N0VW5yZXNvbHZlZCIgZGF0YS1zb3VyY2UtbGluZT0iMTMiIGRhdGEtdWlkPSJsbms1IiBpZD0ibGlua19Vc2VyVW5yZXNvbHZlZF9Qb3N0VW5yZXNvbHZlZCI+PHBhdGggY29kZUxpbmU9IjEzIiBkPSJNMTAwLjUsMTI3LjM2IEMxMDAuNSwxNDguMDUgMTAwLjUsMTU4LjYzIDEwMC41LDE3NC45NiIgZmlsbD0ibm9uZSIgaWQ9IlVzZXJVbnJlc29sdmVkLWJhY2t0by1Qb3N0VW5yZXNvbHZlZCIgc3R5bGU9InN0cm9rZTojMTgxODE4O3N0cm9rZS13aWR0aDoxOyIvPjxwb2x5Z29uIGZpbGw9IiMxODE4MTgiIHBvaW50cz0iMTAwLjUsMTE1LjM2LDk2LjUsMTIxLjM2LDEwMC41LDEyNy4zNiwxMDQuNSwxMjEuMzYsMTAwLjUsMTE1LjM2IiBzdHlsZT0ic3Ryb2tlOiMxODE4MTg7c3Ryb2tlLXdpZHRoOjE7Ii8+PHRleHQgZmlsbD0iIzAwMDAwMCIgZm9udC1mYW1pbHk9InNhbnMtc2VyaWYiIGZvbnQtc2l6ZT0iMTMiIGxlbmd0aEFkanVzdD0ic3BhY2luZyIgdGV4dExlbmd0aD0iNi41IiB4PSI5NC4xNjQ4IiB5PSIxMzUuMTI1OSI+MTwvdGV4dD48dGV4dCBmaWxsPSIjMDAwMDAwIiBmb250LWZhbWlseT0ic2Fucy1zZXJpZiIgZm9udC1zaXplPSIxMyIgbGVuZ3RoQWRqdXN0PSJzcGFjaW5nIiB0ZXh0TGVuZ3RoPSI2LjUiIHg9IjkzLjY5MjIiIHk9IjE2NS40MTIyIj4qPC90ZXh0PjwvZz48IS0tcmV2ZXJzZSBsaW5rIFVzZXIgdG8gUG9zdC0tPjxnIGNsYXNzPSJsaW5rIiBkYXRhLWVudGl0eS0xPSJVc2VyIiBkYXRhLWVudGl0eS0yPSJQb3N0IiBkYXRhLXNvdXJjZS1saW5lPSIxNCIgZGF0YS11aWQ9ImxuazciIGlkPSJsaW5rX1VzZXJfUG9zdCI+PHBhdGggY29kZUxpbmU9IjE0IiBkPSJNMjk4LjUsMTI3LjM2IEMyOTguNSwxNDguMDUgMjk4LjUsMTU4LjYzIDI5OC41LDE3NC45NiIgZmlsbD0ibm9uZSIgaWQ9IlVzZXItYmFja3RvLVBvc3QiIHN0eWxlPSJzdHJva2U6IzE4MTgxODtzdHJva2Utd2lkdGg6MTsiLz48cG9seWdvbiBmaWxsPSIjMTgxODE4IiBwb2ludHM9IjI5OC41LDExNS4zNiwyOTQuNSwxMjEuMzYsMjk4LjUsMTI3LjM2LDMwMi41LDEyMS4zNiwyOTguNSwxMTUuMzYiIHN0eWxlPSJzdHJva2U6IzE4MTgxODtzdHJva2Utd2lkdGg6MTsiLz48dGV4dCBmaWxsPSIjMDAwMDAwIiBmb250LWZhbWlseT0ic2Fucy1zZXJpZiIgZm9udC1zaXplPSIxMyIgbGVuZ3RoQWRqdXN0PSJzcGFjaW5nIiB0ZXh0TGVuZ3RoPSI2LjUiIHg9IjI5Mi4xNjQ4IiB5PSIxMzUuMTI1OSI+MTwvdGV4dD48dGV4dCBmaWxsPSIjMDAwMDAwIiBmb250LWZhbWlseT0ic2Fucy1zZXJpZiIgZm9udC1zaXplPSIxMyIgbGVuZ3RoQWRqdXN0PSJzcGFjaW5nIiB0ZXh0TGVuZ3RoPSI2LjUiIHg9IjI5MS42OTIyIiB5PSIxNjUuNDEyMiI+KjwvdGV4dD48L2c+PCEtLVNSQz1bSXl2OUIydk0yMnJFQkdoREFxZWpwaXlmSXFySGdFUElLRDBrMU9oYjlVUWNNWWFLYm5IYnZnTTNuMGcwWWlscFlyOUduRkFCSXVnajUwQTA1Q0E4dzVZR0w3OUhRYzk5UWVmWllQTTIydjMxTFNrTDNCVUVSNGptNk90YzFvTDM5R0tqTkxxNTlJcWJEQlUxTE1CODBtMDBdLS0+PC9nPjwvc3ZnPg==;" vertex="1" parent="1">
            <mxGeometry x="-1050" y="640" width="374" height="230" as="geometry" />
          </mxCell>
        </UserObject>
        <UserObject label="" plantUmlData="{&quot;data&quot;:&quot;@startuml\nentity User {\n  +username: string (unique)\n  +password: string\n  +posts: ObjectId[] (ref Post)\n  +createdAt: date\n}\nentity Post\nUser \&quot;1\&quot; o-- \&quot;*\&quot; Post : posts\n@enduml&quot;,&quot;format&quot;:&quot;svg&quot;}" id="Pc-rXo_lRMbQFWNjcUTP-131">
          <mxCell style="shape=image;noLabel=1;verticalAlign=top;aspect=fixed;imageAspect=0;image=data:image/svg+xml,PHN2ZyB4bWxucz0iaHR0cDovL3d3dy53My5vcmcvMjAwMC9zdmciIHhtbG5zOnhsaW5rPSJodHRwOi8vd3d3LnczLm9yZy8xOTk5L3hsaW5rIiBjb250ZW50U3R5bGVUeXBlPSJ0ZXh0L2NzcyIgZGF0YS1kaWFncmFtLXR5cGU9IkNMQVNTIiBoZWlnaHQ9IjI0NXB4IiBwcmVzZXJ2ZUFzcGVjdFJhdGlvPSJub25lIiBzdHlsZT0id2lkdGg6MjM2cHg7aGVpZ2h0OjI0NXB4O2JhY2tncm91bmQ6I0ZGRkZGRjsiIHZlcnNpb249IjEuMSIgdmlld0JveD0iMCAwIDIzNiAyNDUiIHdpZHRoPSIyMzZweCIgem9vbUFuZFBhbj0ibWFnbmlmeSI+PGRlZnMvPjxnPjwhLS1jbGFzcyBVc2VyLS0+PGcgY2xhc3M9ImVudGl0eSIgZGF0YS1lbnRpdHk9IlVzZXIiIGRhdGEtc291cmNlLWxpbmU9IjEiIGRhdGEtdWlkPSJlbnQwMDAyIiBpZD0iZW50aXR5X1VzZXIiPjxyZWN0IGZpbGw9IiNGMUYxRjEiIGhlaWdodD0iMTA3LjkzNzUiIHJ4PSIyLjUiIHJ5PSIyLjUiIHN0eWxlPSJzdHJva2U6IzE4MTgxODtzdHJva2Utd2lkdGg6MC41OyIgd2lkdGg9IjIyMiIgeD0iNyIgeT0iNyIvPjxlbGxpcHNlIGN4PSI5OS43NSIgY3k9IjIzIiBmaWxsPSIjQUREMUIyIiByeD0iMTEiIHJ5PSIxMSIgc3R5bGU9InN0cm9rZTojMTgxODE4O3N0cm9rZS13aWR0aDoxOyIvPjxwYXRoIGQ9Ik0xMDMuMzc1LDI5IEwxMDMuMzc1LDI3LjI1IEw5OC4wNjI1LDI3LjI1IFE5OC4wNjI1LDI3LjI1IDk4LjA2MjUsMjMuNjg3NSBMMTAyLjMxMjUsMjMuNjg3NSBMMTAyLjMxMjUsMjEuOTM3NSBMOTguMDYyNSwyMS45Mzc1IEw5OC4wNjI1LDE5LjQzNzUgTDEwMy4zNzUsMTkuNDM3NSBMMTAzLjM3NSwxNy42ODc1IEw5Ni4zMTI1LDE3LjY4NzUgUTk2LjMxMjUsMTcuNjg3NSA5Ni4zMTI1LDI5IEwxMDMuMzc1LDI5IFogIiBmaWxsPSIjMDAwMDAwIi8+PHRleHQgZmlsbD0iIzAwMDAwMCIgZm9udC1mYW1pbHk9InNhbnMtc2VyaWYiIGZvbnQtc2l6ZT0iMTQiIGxlbmd0aEFkanVzdD0ic3BhY2luZyIgdGV4dExlbmd0aD0iMjgiIHg9IjEyMC4yNSIgeT0iMjguNzQyMiI+VXNlcjwvdGV4dD48bGluZSBzdHlsZT0ic3Ryb2tlOiMxODE4MTg7c3Ryb2tlLXdpZHRoOjAuNTsiIHgxPSI4IiB4Mj0iMjI4IiB5MT0iMzkiIHkyPSIzOSIvPjxlbGxpcHNlIGN4PSIxOCIgY3k9IjUxLjk5MjIiIGZpbGw9Im5vbmUiIHJ4PSIzIiByeT0iMyIgc3R5bGU9InN0cm9rZTojMDM4MDQ4O3N0cm9rZS13aWR0aDoxOyIvPjx0ZXh0IGZpbGw9IiMwMDAwMDAiIGZvbnQtZmFtaWx5PSJzYW5zLXNlcmlmIiBmb250LXNpemU9IjE0IiBsZW5ndGhBZGp1c3Q9InNwYWNpbmciIHRleHRMZW5ndGg9IjExMiIgeD0iMjciIHk9IjU2LjIzNDQiPnBhc3N3b3JkOiBzdHJpbmc8L3RleHQ+PGVsbGlwc2UgY3g9IjE4IiBjeT0iNjYuOTc2NiIgZmlsbD0ibm9uZSIgcng9IjMiIHJ5PSIzIiBzdHlsZT0ic3Ryb2tlOiMwMzgwNDg7c3Ryb2tlLXdpZHRoOjE7Ii8+PHRleHQgZmlsbD0iIzAwMDAwMCIgZm9udC1mYW1pbHk9InNhbnMtc2VyaWYiIGZvbnQtc2l6ZT0iMTQiIGxlbmd0aEFkanVzdD0ic3BhY2luZyIgdGV4dExlbmd0aD0iMTA1IiB4PSIyNyIgeT0iNzEuMjE4OCI+Y3JlYXRlZEF0OiBkYXRlPC90ZXh0PjxsaW5lIHN0eWxlPSJzdHJva2U6IzE4MTgxODtzdHJva2Utd2lkdGg6MC41OyIgeDE9IjgiIHgyPSIyMjgiIHkxPSI3Ni45Njg4IiB5Mj0iNzYuOTY4OCIvPjxlbGxpcHNlIGN4PSIxOCIgY3k9Ijg5Ljk2MDkiIGZpbGw9IiM4NEJFODQiIHJ4PSIzIiByeT0iMyIgc3R5bGU9InN0cm9rZTojMDM4MDQ4O3N0cm9rZS13aWR0aDoxOyIvPjx0ZXh0IGZpbGw9IiMwMDAwMDAiIGZvbnQtZmFtaWx5PSJzYW5zLXNlcmlmIiBmb250LXNpemU9IjE0IiBsZW5ndGhBZGp1c3Q9InNwYWNpbmciIHRleHRMZW5ndGg9IjE3NSIgeD0iMjciIHk9Ijk0LjIwMzEiPnVzZXJuYW1lOiBzdHJpbmcgKHVuaXF1ZSk8L3RleHQ+PGVsbGlwc2UgY3g9IjE4IiBjeT0iMTA0Ljk0NTMiIGZpbGw9IiM4NEJFODQiIHJ4PSIzIiByeT0iMyIgc3R5bGU9InN0cm9rZTojMDM4MDQ4O3N0cm9rZS13aWR0aDoxOyIvPjx0ZXh0IGZpbGw9IiMwMDAwMDAiIGZvbnQtZmFtaWx5PSJzYW5zLXNlcmlmIiBmb250LXNpemU9IjE0IiBsZW5ndGhBZGp1c3Q9InNwYWNpbmciIHRleHRMZW5ndGg9IjE5NiIgeD0iMjciIHk9IjEwOS4xODc1Ij5wb3N0czogT2JqZWN0SWRbXSAocmVmIFBvc3QpPC90ZXh0PjwvZz48IS0tY2xhc3MgUG9zdC0tPjxnIGNsYXNzPSJlbnRpdHkiIGRhdGEtZW50aXR5PSJQb3N0IiBkYXRhLXNvdXJjZS1saW5lPSI3IiBkYXRhLXVpZD0iZW50MDAwMyIgaWQ9ImVudGl0eV9Qb3N0Ij48cmVjdCBmaWxsPSIjRjFGMUYxIiBoZWlnaHQ9IjQ4IiByeD0iMi41IiByeT0iMi41IiBzdHlsZT0ic3Ryb2tlOiMxODE4MTg7c3Ryb2tlLXdpZHRoOjAuNTsiIHdpZHRoPSI2MCIgeD0iODgiIHk9IjE5MCIvPjxlbGxpcHNlIGN4PSIxMDMiIGN5PSIyMDYiIGZpbGw9IiNBREQxQjIiIHJ4PSIxMSIgcnk9IjExIiBzdHlsZT0ic3Ryb2tlOiMxODE4MTg7c3Ryb2tlLXdpZHRoOjE7Ii8+PHBhdGggZD0iTTEwNi42MjUsMjEyIEwxMDYuNjI1LDIxMC4yNSBMMTAxLjMxMjUsMjEwLjI1IFExMDEuMzEyNSwyMTAuMjUgMTAxLjMxMjUsMjA2LjY4NzUgTDEwNS41NjI1LDIwNi42ODc1IEwxMDUuNTYyNSwyMDQuOTM3NSBMMTAxLjMxMjUsMjA0LjkzNzUgTDEwMS4zMTI1LDIwMi40Mzc1IEwxMDYuNjI1LDIwMi40Mzc1IEwxMDYuNjI1LDIwMC42ODc1IEw5OS41NjI1LDIwMC42ODc1IFE5OS41NjI1LDIwMC42ODc1IDk5LjU2MjUsMjEyIEwxMDYuNjI1LDIxMiBaICIgZmlsbD0iIzAwMDAwMCIvPjx0ZXh0IGZpbGw9IiMwMDAwMDAiIGZvbnQtZmFtaWx5PSJzYW5zLXNlcmlmIiBmb250LXNpemU9IjE0IiBsZW5ndGhBZGp1c3Q9InNwYWNpbmciIHRleHRMZW5ndGg9IjI4IiB4PSIxMTciIHk9IjIxMS43NDIyIj5Qb3N0PC90ZXh0PjxsaW5lIHN0eWxlPSJzdHJva2U6IzE4MTgxODtzdHJva2Utd2lkdGg6MC41OyIgeDE9Ijg5IiB4Mj0iMTQ3IiB5MT0iMjIyIiB5Mj0iMjIyIi8+PGxpbmUgc3R5bGU9InN0cm9rZTojMTgxODE4O3N0cm9rZS13aWR0aDowLjU7IiB4MT0iODkiIHgyPSIxNDciIHkxPSIyMzAiIHkyPSIyMzAiLz48L2c+PCEtLXJldmVyc2UgbGluayBVc2VyIHRvIFBvc3QtLT48ZyBjbGFzcz0ibGluayIgZGF0YS1lbnRpdHktMT0iVXNlciIgZGF0YS1lbnRpdHktMj0iUG9zdCIgZGF0YS1zb3VyY2UtbGluZT0iOCIgZGF0YS11aWQ9ImxuazQiIGlkPSJsaW5rX1VzZXJfUG9zdCI+PHBhdGggY29kZUxpbmU9IjgiIGQ9Ik0xMTgsMTI3LjI0IEMxMTgsMTUyLjcxIDExOCwxNjkuOSAxMTgsMTg5LjciIGZpbGw9Im5vbmUiIGlkPSJVc2VyLWJhY2t0by1Qb3N0IiBzdHlsZT0ic3Ryb2tlOiMxODE4MTg7c3Ryb2tlLXdpZHRoOjE7Ii8+PHBvbHlnb24gZmlsbD0ibm9uZSIgcG9pbnRzPSIxMTgsMTE1LjI0LDExNCwxMjEuMjQsMTE4LDEyNy4yNCwxMjIsMTIxLjI0LDExOCwxMTUuMjQiIHN0eWxlPSJzdHJva2U6IzE4MTgxODtzdHJva2Utd2lkdGg6MTsiLz48dGV4dCBmaWxsPSIjMDAwMDAwIiBmb250LWZhbWlseT0ic2Fucy1zZXJpZiIgZm9udC1zaXplPSIxMyIgbGVuZ3RoQWRqdXN0PSJzcGFjaW5nIiB0ZXh0TGVuZ3RoPSIzMi41IiB4PSIxMTkiIHk9IjE1OC4yODkxIj5wb3N0czwvdGV4dD48dGV4dCBmaWxsPSIjMDAwMDAwIiBmb250LWZhbWlseT0ic2Fucy1zZXJpZiIgZm9udC1zaXplPSIxMyIgbGVuZ3RoQWRqdXN0PSJzcGFjaW5nIiB0ZXh0TGVuZ3RoPSI2LjUiIHg9IjExMS42NDc3IiB5PSIxMzUuMzczOSI+MTwvdGV4dD48dGV4dCBmaWxsPSIjMDAwMDAwIiBmb250LWZhbWlseT0ic2Fucy1zZXJpZiIgZm9udC1zaXplPSIxMyIgbGVuZ3RoQWRqdXN0PSJzcGFjaW5nIiB0ZXh0TGVuZ3RoPSI2LjUiIHg9IjExMS4yMjY2IiB5PSIxODAuNDU1MSI+KjwvdGV4dD48L2c+PCEtLVNSQz1bRE9zejJXOG40OEp4RkNNR3diSWtpNHJkUVFNRHJNNEhCd2o0Q0Q3VDNOQjhsUmt2WUR0bXBIeWJaSmhYOUNKdTY2MUpnYWgtR0d3WTdEQ0ROS2RuTE1ZcmM0eWx5aXVTX2NQWk1MR1MzZlN4WlJlRm1uYVRxbk43WWJqZFBGOUFPUVNFZUdlcDZfZnpCV2RKWmt0TThsU3p4RGVzMmVVcy1XSzBdLS0+PC9nPjwvc3ZnPg==;" vertex="1" parent="1">
            <mxGeometry x="-570" y="640" width="236" height="245" as="geometry" />
          </mxCell>
        </UserObject>
        <mxCell id="Pc-rXo_lRMbQFWNjcUTP-136" value="&lt;font style=&quot;font-size: 40px;&quot;&gt;USER Model&lt;/font&gt;" style="text;html=1;align=center;verticalAlign=middle;whiteSpace=wrap;rounded=0;" vertex="1" parent="1">
          <mxGeometry x="-840" y="450" width="380" height="80" as="geometry" />
        </mxCell>
        <mxCell id="Pc-rXo_lRMbQFWNjcUTP-137" value="&lt;font style=&quot;font-size: 40px;&quot;&gt;POST Model&lt;/font&gt;" style="text;html=1;align=center;verticalAlign=middle;whiteSpace=wrap;rounded=0;" vertex="1" parent="1">
          <mxGeometry x="-884" y="-940" width="380" height="80" as="geometry" />
        </mxCell>
        <mxCell id="Pc-rXo_lRMbQFWNjcUTP-138" value="&lt;font style=&quot;font-size: 40px;&quot;&gt;STORE Model&lt;/font&gt;" style="text;html=1;align=center;verticalAlign=middle;whiteSpace=wrap;rounded=0;" vertex="1" parent="1">
          <mxGeometry x="-850" y="-250" width="380" height="80" as="geometry" />
        </mxCell>
        <mxCell id="Pc-rXo_lRMbQFWNjcUTP-139" value="&lt;font style=&quot;font-size: 30px;&quot;&gt;Typescript&lt;/font&gt;" style="text;html=1;align=center;verticalAlign=middle;whiteSpace=wrap;rounded=0;" vertex="1" parent="1">
          <mxGeometry x="-1084" y="-890" width="380" height="80" as="geometry" />
        </mxCell>
        <mxCell id="Pc-rXo_lRMbQFWNjcUTP-140" value="&lt;font style=&quot;font-size: 30px;&quot;&gt;Typescript&lt;/font&gt;" style="text;html=1;align=center;verticalAlign=middle;whiteSpace=wrap;rounded=0;" vertex="1" parent="1">
          <mxGeometry x="-1056" y="560" width="380" height="80" as="geometry" />
        </mxCell>
        <mxCell id="Pc-rXo_lRMbQFWNjcUTP-141" value="&lt;font style=&quot;font-size: 30px;&quot;&gt;Typescript&lt;/font&gt;" style="text;html=1;align=center;verticalAlign=middle;whiteSpace=wrap;rounded=0;" vertex="1" parent="1">
          <mxGeometry x="-1140" y="-152" width="380" height="80" as="geometry" />
        </mxCell>
        <mxCell id="Pc-rXo_lRMbQFWNjcUTP-142" value="&lt;font style=&quot;font-size: 30px;&quot;&gt;Mongoose&lt;/font&gt;" style="text;html=1;align=center;verticalAlign=middle;whiteSpace=wrap;rounded=0;" vertex="1" parent="1">
          <mxGeometry x="-621" y="-890" width="380" height="80" as="geometry" />
        </mxCell>
        <mxCell id="Pc-rXo_lRMbQFWNjcUTP-143" value="&lt;font style=&quot;font-size: 30px;&quot;&gt;Mongoose&lt;/font&gt;" style="text;html=1;align=center;verticalAlign=middle;whiteSpace=wrap;rounded=0;" vertex="1" parent="1">
          <mxGeometry x="-663" y="-130" width="380" height="80" as="geometry" />
        </mxCell>
        <mxCell id="Pc-rXo_lRMbQFWNjcUTP-144" value="&lt;font style=&quot;font-size: 30px;&quot;&gt;Mongoose&lt;/font&gt;" style="text;html=1;align=center;verticalAlign=middle;whiteSpace=wrap;rounded=0;" vertex="1" parent="1">
          <mxGeometry x="-650" y="560" width="380" height="80" as="geometry" />
        </mxCell>
        <UserObject label="" plantUmlData="{&#xa;  &quot;data&quot;: &quot;class UserService {\n  +findAllUsers(): UserWithId[]\n  +findUserByName(username: string): UserWithId | null\n  +createUser(username: string, password: string): UserWithId\n  +isPasswordValid(user: User, password: string): boolean\n  +generateJWT(user: UserWithId): string\n  +verifyJWT(token: string): JWTData | null\n}\nUserService ..&gt; User&quot;,&#xa;  &quot;format&quot;: &quot;svg&quot;&#xa;}" id="Pc-rXo_lRMbQFWNjcUTP-145">
          <mxCell style="shape=image;noLabel=1;verticalAlign=top;aspect=fixed;imageAspect=0;image=data:image/svg+xml,PHN2ZyB4bWxucz0iaHR0cDovL3d3dy53My5vcmcvMjAwMC9zdmciIHhtbG5zOnhsaW5rPSJodHRwOi8vd3d3LnczLm9yZy8xOTk5L3hsaW5rIiBjb250ZW50U3R5bGVUeXBlPSJ0ZXh0L2NzcyIgZGF0YS1kaWFncmFtLXR5cGU9IkNMQVNTIiBoZWlnaHQ9IjI2MHB4IiBwcmVzZXJ2ZUFzcGVjdFJhdGlvPSJub25lIiBzdHlsZT0id2lkdGg6NDQ2cHg7aGVpZ2h0OjI2MHB4O2JhY2tncm91bmQ6I0ZGRkZGRjsiIHZlcnNpb249IjEuMSIgdmlld0JveD0iMCAwIDQ0NiAyNjAiIHdpZHRoPSI0NDZweCIgem9vbUFuZFBhbj0ibWFnbmlmeSI+PGRlZnMvPjxnPjwhLS1jbGFzcyBVc2VyU2VydmljZS0tPjxnIGNsYXNzPSJlbnRpdHkiIGRhdGEtZW50aXR5PSJVc2VyU2VydmljZSIgZGF0YS1zb3VyY2UtbGluZT0iMSIgZGF0YS11aWQ9ImVudDAwMDIiIGlkPSJlbnRpdHlfVXNlclNlcnZpY2UiPjxyZWN0IGZpbGw9IiNGMUYxRjEiIGhlaWdodD0iMTM3LjkwNjMiIHJ4PSIyLjUiIHJ5PSIyLjUiIHN0eWxlPSJzdHJva2U6IzE4MTgxODtzdHJva2Utd2lkdGg6MC41OyIgd2lkdGg9IjQzMiIgeD0iNyIgeT0iNyIvPjxlbGxpcHNlIGN4PSIxODAuMjUiIGN5PSIyMyIgZmlsbD0iI0FERDFCMiIgcng9IjExIiByeT0iMTEiIHN0eWxlPSJzdHJva2U6IzE4MTgxODtzdHJva2Utd2lkdGg6MTsiLz48cGF0aCBkPSJNMTc3Ljg3NSwyNy4yNSBMMTc3Ljg3NSwyOSBMMTgyLjgxMjUsMjkgTDE4Mi44MTI1LDI3LjI1IEwxNzcuODc1LDI3LjI1IFogTTE3OC41NjI1LDI3LjkzNzUgUTE3OC41NjI1LDI3LjkzNzUgMTc4LjU2MjUsMTguNzUgTDE3Ni44MTI1LDE4Ljc1IFExNzYuODEyNSwxOC43NSAxNzYuODEyNSwyNy45Mzc1IEwxNzguNTYyNSwyNy45Mzc1IFogTTE4Mi4xMjUsMjcuOTM3NSBMMTgzLjg3NSwyNy45Mzc1IFExODMuODc1LDI3LjkzNzUgMTgzLjg3NSwyNS4xMjUgTDE4Mi4xMjUsMjUuMTI1IFExODIuMTI1LDI1LjEyNSAxODIuMTI1LDI3LjkzNzUgWiBNMTgyLjEyNSwxOC43NSBRMTgyLjEyNSwxOC43NSAxODIuMTI1LDIxLjU2MjUgTDE4My44NzUsMjEuNTYyNSBRMTgzLjg3NSwyMS41NjI1IDE4My44NzUsMTguNzUgTDE4Mi4xMjUsMTguNzUgWiBNMTc3Ljg3NSwxOS40Mzc1IEwxODIuODEyNSwxOS40Mzc1IEwxODIuODEyNSwxNy42ODc1IEwxNzcuODc1LDE3LjY4NzUgTDE3Ny44NzUsMTkuNDM3NSBaICIgZmlsbD0iIzAwMDAwMCIvPjx0ZXh0IGZpbGw9IiMwMDAwMDAiIGZvbnQtZmFtaWx5PSJzYW5zLXNlcmlmIiBmb250LXNpemU9IjE0IiBsZW5ndGhBZGp1c3Q9InNwYWNpbmciIHRleHRMZW5ndGg9Ijc3IiB4PSIyMDAuNzUiIHk9IjI4Ljc0MjIiPlVzZXJTZXJ2aWNlPC90ZXh0PjxsaW5lIHN0eWxlPSJzdHJva2U6IzE4MTgxODtzdHJva2Utd2lkdGg6MC41OyIgeDE9IjgiIHgyPSI0MzgiIHkxPSIzOSIgeTI9IjM5Ii8+PGxpbmUgc3R5bGU9InN0cm9rZTojMTgxODE4O3N0cm9rZS13aWR0aDowLjU7IiB4MT0iOCIgeDI9IjQzOCIgeTE9IjQ3IiB5Mj0iNDciLz48ZWxsaXBzZSBjeD0iMTgiIGN5PSI1OS45OTIyIiBmaWxsPSIjODRCRTg0IiByeD0iMyIgcnk9IjMiIHN0eWxlPSJzdHJva2U6IzAzODA0ODtzdHJva2Utd2lkdGg6MTsiLz48dGV4dCBmaWxsPSIjMDAwMDAwIiBmb250LWZhbWlseT0ic2Fucy1zZXJpZiIgZm9udC1zaXplPSIxNCIgbGVuZ3RoQWRqdXN0PSJzcGFjaW5nIiB0ZXh0TGVuZ3RoPSIxOTYiIHg9IjI3IiB5PSI2NC4yMzQ0Ij5maW5kQWxsVXNlcnMoKTogVXNlcldpdGhJZFtdPC90ZXh0PjxlbGxpcHNlIGN4PSIxOCIgY3k9Ijc0Ljk3NjYiIGZpbGw9IiM4NEJFODQiIHJ4PSIzIiByeT0iMyIgc3R5bGU9InN0cm9rZTojMDM4MDQ4O3N0cm9rZS13aWR0aDoxOyIvPjx0ZXh0IGZpbGw9IiMwMDAwMDAiIGZvbnQtZmFtaWx5PSJzYW5zLXNlcmlmIiBmb250LXNpemU9IjE0IiBsZW5ndGhBZGp1c3Q9InNwYWNpbmciIHRleHRMZW5ndGg9IjM1NyIgeD0iMjciIHk9Ijc5LjIxODgiPmZpbmRVc2VyQnlOYW1lKHVzZXJuYW1lOiBzdHJpbmcpOiBVc2VyV2l0aElkIHwgbnVsbDwvdGV4dD48ZWxsaXBzZSBjeD0iMTgiIGN5PSI4OS45NjA5IiBmaWxsPSIjODRCRTg0IiByeD0iMyIgcnk9IjMiIHN0eWxlPSJzdHJva2U6IzAzODA0ODtzdHJva2Utd2lkdGg6MTsiLz48dGV4dCBmaWxsPSIjMDAwMDAwIiBmb250LWZhbWlseT0ic2Fucy1zZXJpZiIgZm9udC1zaXplPSIxNCIgbGVuZ3RoQWRqdXN0PSJzcGFjaW5nIiB0ZXh0TGVuZ3RoPSI0MDYiIHg9IjI3IiB5PSI5NC4yMDMxIj5jcmVhdGVVc2VyKHVzZXJuYW1lOiBzdHJpbmcsIHBhc3N3b3JkOiBzdHJpbmcpOiBVc2VyV2l0aElkPC90ZXh0PjxlbGxpcHNlIGN4PSIxOCIgY3k9IjEwNC45NDUzIiBmaWxsPSIjODRCRTg0IiByeD0iMyIgcnk9IjMiIHN0eWxlPSJzdHJva2U6IzAzODA0ODtzdHJva2Utd2lkdGg6MTsiLz48dGV4dCBmaWxsPSIjMDAwMDAwIiBmb250LWZhbWlseT0ic2Fucy1zZXJpZiIgZm9udC1zaXplPSIxNCIgbGVuZ3RoQWRqdXN0PSJzcGFjaW5nIiB0ZXh0TGVuZ3RoPSIzNzgiIHg9IjI3IiB5PSIxMDkuMTg3NSI+aXNQYXNzd29yZFZhbGlkKHVzZXI6IFVzZXIsIHBhc3N3b3JkOiBzdHJpbmcpOiBib29sZWFuPC90ZXh0PjxlbGxpcHNlIGN4PSIxOCIgY3k9IjExOS45Mjk3IiBmaWxsPSIjODRCRTg0IiByeD0iMyIgcnk9IjMiIHN0eWxlPSJzdHJva2U6IzAzODA0ODtzdHJva2Utd2lkdGg6MTsiLz48dGV4dCBmaWxsPSIjMDAwMDAwIiBmb250LWZhbWlseT0ic2Fucy1zZXJpZiIgZm9udC1zaXplPSIxNCIgbGVuZ3RoQWRqdXN0PSJzcGFjaW5nIiB0ZXh0TGVuZ3RoPSIyNTkiIHg9IjI3IiB5PSIxMjQuMTcxOSI+Z2VuZXJhdGVKV1QodXNlcjogVXNlcldpdGhJZCk6IHN0cmluZzwvdGV4dD48ZWxsaXBzZSBjeD0iMTgiIGN5PSIxMzQuOTE0MSIgZmlsbD0iIzg0QkU4NCIgcng9IjMiIHJ5PSIzIiBzdHlsZT0ic3Ryb2tlOiMwMzgwNDg7c3Ryb2tlLXdpZHRoOjE7Ii8+PHRleHQgZmlsbD0iIzAwMDAwMCIgZm9udC1mYW1pbHk9InNhbnMtc2VyaWYiIGZvbnQtc2l6ZT0iMTQiIGxlbmd0aEFkanVzdD0ic3BhY2luZyIgdGV4dExlbmd0aD0iMjgwIiB4PSIyNyIgeT0iMTM5LjE1NjMiPnZlcmlmeUpXVCh0b2tlbjogc3RyaW5nKTogSldURGF0YSB8IG51bGw8L3RleHQ+PC9nPjwhLS1jbGFzcyBVc2VyLS0+PGcgY2xhc3M9ImVudGl0eSIgZGF0YS1lbnRpdHk9IlVzZXIiIGRhdGEtc291cmNlLWxpbmU9IjkiIGRhdGEtdWlkPSJlbnQwMDAzIiBpZD0iZW50aXR5X1VzZXIiPjxyZWN0IGZpbGw9IiNGMUYxRjEiIGhlaWdodD0iNDgiIHJ4PSIyLjUiIHJ5PSIyLjUiIHN0eWxlPSJzdHJva2U6IzE4MTgxODtzdHJva2Utd2lkdGg6MC41OyIgd2lkdGg9IjYwIiB4PSIxOTMiIHk9IjIwNSIvPjxlbGxpcHNlIGN4PSIyMDgiIGN5PSIyMjEiIGZpbGw9IiNBREQxQjIiIHJ4PSIxMSIgcnk9IjExIiBzdHlsZT0ic3Ryb2tlOiMxODE4MTg7c3Ryb2tlLXdpZHRoOjE7Ii8+PHBhdGggZD0iTTIwNS42MjUsMjI1LjI1IEwyMDUuNjI1LDIyNyBMMjEwLjU2MjUsMjI3IEwyMTAuNTYyNSwyMjUuMjUgTDIwNS42MjUsMjI1LjI1IFogTTIwNi4zMTI1LDIyNS45Mzc1IFEyMDYuMzEyNSwyMjUuOTM3NSAyMDYuMzEyNSwyMTYuNzUgTDIwNC41NjI1LDIxNi43NSBRMjA0LjU2MjUsMjE2Ljc1IDIwNC41NjI1LDIyNS45Mzc1IEwyMDYuMzEyNSwyMjUuOTM3NSBaIE0yMDkuODc1LDIyNS45Mzc1IEwyMTEuNjI1LDIyNS45Mzc1IFEyMTEuNjI1LDIyNS45Mzc1IDIxMS42MjUsMjIzLjEyNSBMMjA5Ljg3NSwyMjMuMTI1IFEyMDkuODc1LDIyMy4xMjUgMjA5Ljg3NSwyMjUuOTM3NSBaIE0yMDkuODc1LDIxNi43NSBRMjA5Ljg3NSwyMTYuNzUgMjA5Ljg3NSwyMTkuNTYyNSBMMjExLjYyNSwyMTkuNTYyNSBRMjExLjYyNSwyMTkuNTYyNSAyMTEuNjI1LDIxNi43NSBMMjA5Ljg3NSwyMTYuNzUgWiBNMjA1LjYyNSwyMTcuNDM3NSBMMjEwLjU2MjUsMjE3LjQzNzUgTDIxMC41NjI1LDIxNS42ODc1IEwyMDUuNjI1LDIxNS42ODc1IEwyMDUuNjI1LDIxNy40Mzc1IFogIiBmaWxsPSIjMDAwMDAwIi8+PHRleHQgZmlsbD0iIzAwMDAwMCIgZm9udC1mYW1pbHk9InNhbnMtc2VyaWYiIGZvbnQtc2l6ZT0iMTQiIGxlbmd0aEFkanVzdD0ic3BhY2luZyIgdGV4dExlbmd0aD0iMjgiIHg9IjIyMiIgeT0iMjI2Ljc0MjIiPlVzZXI8L3RleHQ+PGxpbmUgc3R5bGU9InN0cm9rZTojMTgxODE4O3N0cm9rZS13aWR0aDowLjU7IiB4MT0iMTk0IiB4Mj0iMjUyIiB5MT0iMjM3IiB5Mj0iMjM3Ii8+PGxpbmUgc3R5bGU9InN0cm9rZTojMTgxODE4O3N0cm9rZS13aWR0aDowLjU7IiB4MT0iMTk0IiB4Mj0iMjUyIiB5MT0iMjQ1IiB5Mj0iMjQ1Ii8+PC9nPjwhLS1saW5rIFVzZXJTZXJ2aWNlIHRvIFVzZXItLT48ZyBjbGFzcz0ibGluayIgZGF0YS1lbnRpdHktMT0iVXNlclNlcnZpY2UiIGRhdGEtZW50aXR5LTI9IlVzZXIiIGRhdGEtc291cmNlLWxpbmU9IjkiIGRhdGEtdWlkPSJsbms0IiBpZD0ibGlua19Vc2VyU2VydmljZV9Vc2VyIj48cGF0aCBjb2RlTGluZT0iOSIgZD0iTTIyMywxNDUuNDMgQzIyMywxNjYuODEgMjIzLDE4Mi45NiAyMjMsMTk4LjkyIiBmaWxsPSJub25lIiBpZD0iVXNlclNlcnZpY2UtdG8tVXNlciIgc3R5bGU9InN0cm9rZTojMTgxODE4O3N0cm9rZS13aWR0aDoxO3N0cm9rZS1kYXNoYXJyYXk6Ny4wLDcuMDsiLz48cG9seWdvbiBmaWxsPSIjMTgxODE4IiBwb2ludHM9IjIyMywyMDQuOTIsMjI3LDE5NS45MiwyMjMsMTk5LjkyLDIxOSwxOTUuOTIsMjIzLDIwNC45MiIgc3R5bGU9InN0cm9rZTojMTgxODE4O3N0cm9rZS13aWR0aDoxOyIvPjwvZz48IS0tU1JDPVtSUDNCM2U4bTQ0TnRWQ0tpOEhlLVc4TTluZXFrWjhhRjVpUDVmR0NzckRRcTFLRktWeFMzYWMxYUR4YnBwa3FaYXluUUU1V3FFcElybzEyVTBTMGE1dWhGZlFKU1hiN0kwZ2Jtcm5LX2RWaXpQT2pjbXN1T0xkdktWYVowRVlES3lNRjAyckdiOU1jUEdVUUdMZF9BNUV4LTlXemotNlc5c1M5a2x5WUhJUzdSWWV1UGJJelFJc0lBcDA4TDZkX29FanFGaEF1dndYSzJRcEdZUm1YcGthR3JRRkZQYVpkTUYtT1QzRnlpWmNUanVtUzBdLS0+PC9nPjwvc3ZnPg==;" vertex="1" parent="1">
            <mxGeometry x="-100" y="-810" width="446" height="260" as="geometry" />
          </mxCell>
        </UserObject>
        <mxCell id="Pc-rXo_lRMbQFWNjcUTP-147" value="&lt;font style=&quot;font-size: 40px;&quot;&gt;Services&lt;/font&gt;" style="text;html=1;align=center;verticalAlign=middle;whiteSpace=wrap;rounded=0;" vertex="1" parent="1">
          <mxGeometry x="-67" y="-890" width="380" height="80" as="geometry" />
        </mxCell>
        <UserObject label="" plantUmlData="{&#xa;  &quot;data&quot;: &quot;class PostService {\n  +findAllPosts(): PostWithId[]\n  +findPostById(id: string): PostWithId | null\n  +findPostsByAuthor(author: ObjectId): PostWithId[] | null\n  +createPost(info: PostUnresolved): PostWithId\n}\nPostService ..&gt; Post&quot;,&#xa;  &quot;format&quot;: &quot;svg&quot;&#xa;}" id="Pc-rXo_lRMbQFWNjcUTP-149">
          <mxCell style="shape=image;noLabel=1;verticalAlign=top;aspect=fixed;imageAspect=0;image=data:image/svg+xml,PHN2ZyB4bWxucz0iaHR0cDovL3d3dy53My5vcmcvMjAwMC9zdmciIHhtbG5zOnhsaW5rPSJodHRwOi8vd3d3LnczLm9yZy8xOTk5L3hsaW5rIiBjb250ZW50U3R5bGVUeXBlPSJ0ZXh0L2NzcyIgZGF0YS1kaWFncmFtLXR5cGU9IkNMQVNTIiBoZWlnaHQ9IjIzMHB4IiBwcmVzZXJ2ZUFzcGVjdFJhdGlvPSJub25lIiBzdHlsZT0id2lkdGg6NDMycHg7aGVpZ2h0OjIzMHB4O2JhY2tncm91bmQ6I0ZGRkZGRjsiIHZlcnNpb249IjEuMSIgdmlld0JveD0iMCAwIDQzMiAyMzAiIHdpZHRoPSI0MzJweCIgem9vbUFuZFBhbj0ibWFnbmlmeSI+PGRlZnMvPjxnPjwhLS1jbGFzcyBQb3N0U2VydmljZS0tPjxnIGNsYXNzPSJlbnRpdHkiIGRhdGEtZW50aXR5PSJQb3N0U2VydmljZSIgZGF0YS1zb3VyY2UtbGluZT0iMSIgZGF0YS11aWQ9ImVudDAwMDIiIGlkPSJlbnRpdHlfUG9zdFNlcnZpY2UiPjxyZWN0IGZpbGw9IiNGMUYxRjEiIGhlaWdodD0iMTA3LjkzNzUiIHJ4PSIyLjUiIHJ5PSIyLjUiIHN0eWxlPSJzdHJva2U6IzE4MTgxODtzdHJva2Utd2lkdGg6MC41OyIgd2lkdGg9IjQxOCIgeD0iNyIgeT0iNyIvPjxlbGxpcHNlIGN4PSIxNzMuMjUiIGN5PSIyMyIgZmlsbD0iI0FERDFCMiIgcng9IjExIiByeT0iMTEiIHN0eWxlPSJzdHJva2U6IzE4MTgxODtzdHJva2Utd2lkdGg6MTsiLz48cGF0aCBkPSJNMTcwLjg3NSwyNy4yNSBMMTcwLjg3NSwyOSBMMTc1LjgxMjUsMjkgTDE3NS44MTI1LDI3LjI1IEwxNzAuODc1LDI3LjI1IFogTTE3MS41NjI1LDI3LjkzNzUgUTE3MS41NjI1LDI3LjkzNzUgMTcxLjU2MjUsMTguNzUgTDE2OS44MTI1LDE4Ljc1IFExNjkuODEyNSwxOC43NSAxNjkuODEyNSwyNy45Mzc1IEwxNzEuNTYyNSwyNy45Mzc1IFogTTE3NS4xMjUsMjcuOTM3NSBMMTc2Ljg3NSwyNy45Mzc1IFExNzYuODc1LDI3LjkzNzUgMTc2Ljg3NSwyNS4xMjUgTDE3NS4xMjUsMjUuMTI1IFExNzUuMTI1LDI1LjEyNSAxNzUuMTI1LDI3LjkzNzUgWiBNMTc1LjEyNSwxOC43NSBRMTc1LjEyNSwxOC43NSAxNzUuMTI1LDIxLjU2MjUgTDE3Ni44NzUsMjEuNTYyNSBRMTc2Ljg3NSwyMS41NjI1IDE3Ni44NzUsMTguNzUgTDE3NS4xMjUsMTguNzUgWiBNMTcwLjg3NSwxOS40Mzc1IEwxNzUuODEyNSwxOS40Mzc1IEwxNzUuODEyNSwxNy42ODc1IEwxNzAuODc1LDE3LjY4NzUgTDE3MC44NzUsMTkuNDM3NSBaICIgZmlsbD0iIzAwMDAwMCIvPjx0ZXh0IGZpbGw9IiMwMDAwMDAiIGZvbnQtZmFtaWx5PSJzYW5zLXNlcmlmIiBmb250LXNpemU9IjE0IiBsZW5ndGhBZGp1c3Q9InNwYWNpbmciIHRleHRMZW5ndGg9Ijc3IiB4PSIxOTMuNzUiIHk9IjI4Ljc0MjIiPlBvc3RTZXJ2aWNlPC90ZXh0PjxsaW5lIHN0eWxlPSJzdHJva2U6IzE4MTgxODtzdHJva2Utd2lkdGg6MC41OyIgeDE9IjgiIHgyPSI0MjQiIHkxPSIzOSIgeTI9IjM5Ii8+PGxpbmUgc3R5bGU9InN0cm9rZTojMTgxODE4O3N0cm9rZS13aWR0aDowLjU7IiB4MT0iOCIgeDI9IjQyNCIgeTE9IjQ3IiB5Mj0iNDciLz48ZWxsaXBzZSBjeD0iMTgiIGN5PSI1OS45OTIyIiBmaWxsPSIjODRCRTg0IiByeD0iMyIgcnk9IjMiIHN0eWxlPSJzdHJva2U6IzAzODA0ODtzdHJva2Utd2lkdGg6MTsiLz48dGV4dCBmaWxsPSIjMDAwMDAwIiBmb250LWZhbWlseT0ic2Fucy1zZXJpZiIgZm9udC1zaXplPSIxNCIgbGVuZ3RoQWRqdXN0PSJzcGFjaW5nIiB0ZXh0TGVuZ3RoPSIxOTYiIHg9IjI3IiB5PSI2NC4yMzQ0Ij5maW5kQWxsUG9zdHMoKTogUG9zdFdpdGhJZFtdPC90ZXh0PjxlbGxpcHNlIGN4PSIxOCIgY3k9Ijc0Ljk3NjYiIGZpbGw9IiM4NEJFODQiIHJ4PSIzIiByeT0iMyIgc3R5bGU9InN0cm9rZTojMDM4MDQ4O3N0cm9rZS13aWR0aDoxOyIvPjx0ZXh0IGZpbGw9IiMwMDAwMDAiIGZvbnQtZmFtaWx5PSJzYW5zLXNlcmlmIiBmb250LXNpemU9IjE0IiBsZW5ndGhBZGp1c3Q9InNwYWNpbmciIHRleHRMZW5ndGg9IjMwMSIgeD0iMjciIHk9Ijc5LjIxODgiPmZpbmRQb3N0QnlJZChpZDogc3RyaW5nKTogUG9zdFdpdGhJZCB8IG51bGw8L3RleHQ+PGVsbGlwc2UgY3g9IjE4IiBjeT0iODkuOTYwOSIgZmlsbD0iIzg0QkU4NCIgcng9IjMiIHJ5PSIzIiBzdHlsZT0ic3Ryb2tlOiMwMzgwNDg7c3Ryb2tlLXdpZHRoOjE7Ii8+PHRleHQgZmlsbD0iIzAwMDAwMCIgZm9udC1mYW1pbHk9InNhbnMtc2VyaWYiIGZvbnQtc2l6ZT0iMTQiIGxlbmd0aEFkanVzdD0ic3BhY2luZyIgdGV4dExlbmd0aD0iMzkyIiB4PSIyNyIgeT0iOTQuMjAzMSI+ZmluZFBvc3RzQnlBdXRob3IoYXV0aG9yOiBPYmplY3RJZCk6IFBvc3RXaXRoSWRbXSB8IG51bGw8L3RleHQ+PGVsbGlwc2UgY3g9IjE4IiBjeT0iMTA0Ljk0NTMiIGZpbGw9IiM4NEJFODQiIHJ4PSIzIiByeT0iMyIgc3R5bGU9InN0cm9rZTojMDM4MDQ4O3N0cm9rZS13aWR0aDoxOyIvPjx0ZXh0IGZpbGw9IiMwMDAwMDAiIGZvbnQtZmFtaWx5PSJzYW5zLXNlcmlmIiBmb250LXNpemU9IjE0IiBsZW5ndGhBZGp1c3Q9InNwYWNpbmciIHRleHRMZW5ndGg9IjMwOCIgeD0iMjciIHk9IjEwOS4xODc1Ij5jcmVhdGVQb3N0KGluZm86IFBvc3RVbnJlc29sdmVkKTogUG9zdFdpdGhJZDwvdGV4dD48L2c+PCEtLWNsYXNzIFBvc3QtLT48ZyBjbGFzcz0iZW50aXR5IiBkYXRhLWVudGl0eT0iUG9zdCIgZGF0YS1zb3VyY2UtbGluZT0iNyIgZGF0YS11aWQ9ImVudDAwMDMiIGlkPSJlbnRpdHlfUG9zdCI+PHJlY3QgZmlsbD0iI0YxRjFGMSIgaGVpZ2h0PSI0OCIgcng9IjIuNSIgcnk9IjIuNSIgc3R5bGU9InN0cm9rZTojMTgxODE4O3N0cm9rZS13aWR0aDowLjU7IiB3aWR0aD0iNjAiIHg9IjE4NiIgeT0iMTc1Ii8+PGVsbGlwc2UgY3g9IjIwMSIgY3k9IjE5MSIgZmlsbD0iI0FERDFCMiIgcng9IjExIiByeT0iMTEiIHN0eWxlPSJzdHJva2U6IzE4MTgxODtzdHJva2Utd2lkdGg6MTsiLz48cGF0aCBkPSJNMTk4LjYyNSwxOTUuMjUgTDE5OC42MjUsMTk3IEwyMDMuNTYyNSwxOTcgTDIwMy41NjI1LDE5NS4yNSBMMTk4LjYyNSwxOTUuMjUgWiBNMTk5LjMxMjUsMTk1LjkzNzUgUTE5OS4zMTI1LDE5NS45Mzc1IDE5OS4zMTI1LDE4Ni43NSBMMTk3LjU2MjUsMTg2Ljc1IFExOTcuNTYyNSwxODYuNzUgMTk3LjU2MjUsMTk1LjkzNzUgTDE5OS4zMTI1LDE5NS45Mzc1IFogTTIwMi44NzUsMTk1LjkzNzUgTDIwNC42MjUsMTk1LjkzNzUgUTIwNC42MjUsMTk1LjkzNzUgMjA0LjYyNSwxOTMuMTI1IEwyMDIuODc1LDE5My4xMjUgUTIwMi44NzUsMTkzLjEyNSAyMDIuODc1LDE5NS45Mzc1IFogTTIwMi44NzUsMTg2Ljc1IFEyMDIuODc1LDE4Ni43NSAyMDIuODc1LDE4OS41NjI1IEwyMDQuNjI1LDE4OS41NjI1IFEyMDQuNjI1LDE4OS41NjI1IDIwNC42MjUsMTg2Ljc1IEwyMDIuODc1LDE4Ni43NSBaIE0xOTguNjI1LDE4Ny40Mzc1IEwyMDMuNTYyNSwxODcuNDM3NSBMMjAzLjU2MjUsMTg1LjY4NzUgTDE5OC42MjUsMTg1LjY4NzUgTDE5OC42MjUsMTg3LjQzNzUgWiAiIGZpbGw9IiMwMDAwMDAiLz48dGV4dCBmaWxsPSIjMDAwMDAwIiBmb250LWZhbWlseT0ic2Fucy1zZXJpZiIgZm9udC1zaXplPSIxNCIgbGVuZ3RoQWRqdXN0PSJzcGFjaW5nIiB0ZXh0TGVuZ3RoPSIyOCIgeD0iMjE1IiB5PSIxOTYuNzQyMiI+UG9zdDwvdGV4dD48bGluZSBzdHlsZT0ic3Ryb2tlOiMxODE4MTg7c3Ryb2tlLXdpZHRoOjAuNTsiIHgxPSIxODciIHgyPSIyNDUiIHkxPSIyMDciIHkyPSIyMDciLz48bGluZSBzdHlsZT0ic3Ryb2tlOiMxODE4MTg7c3Ryb2tlLXdpZHRoOjAuNTsiIHgxPSIxODciIHgyPSIyNDUiIHkxPSIyMTUiIHkyPSIyMTUiLz48L2c+PCEtLWxpbmsgUG9zdFNlcnZpY2UgdG8gUG9zdC0tPjxnIGNsYXNzPSJsaW5rIiBkYXRhLWVudGl0eS0xPSJQb3N0U2VydmljZSIgZGF0YS1lbnRpdHktMj0iUG9zdCIgZGF0YS1zb3VyY2UtbGluZT0iNyIgZGF0YS11aWQ9ImxuazQiIGlkPSJsaW5rX1Bvc3RTZXJ2aWNlX1Bvc3QiPjxwYXRoIGNvZGVMaW5lPSI3IiBkPSJNMjE2LDExNS4zNiBDMjE2LDEzNi4wNSAyMTYsMTUyLjYzIDIxNiwxNjguOTYiIGZpbGw9Im5vbmUiIGlkPSJQb3N0U2VydmljZS10by1Qb3N0IiBzdHlsZT0ic3Ryb2tlOiMxODE4MTg7c3Ryb2tlLXdpZHRoOjE7c3Ryb2tlLWRhc2hhcnJheTo3LjAsNy4wOyIvPjxwb2x5Z29uIGZpbGw9IiMxODE4MTgiIHBvaW50cz0iMjE2LDE3NC45NiwyMjAsMTY1Ljk2LDIxNiwxNjkuOTYsMjEyLDE2NS45NiwyMTYsMTc0Ljk2IiBzdHlsZT0ic3Ryb2tlOiMxODE4MTg7c3Ryb2tlLXdpZHRoOjE7Ii8+PC9nPjwhLS1TUkM9W0l5djlCMnZNMkNXbEJXYkVCSWhCSjR2TGdFUElLRDFFb3luQlNTcDkwT2FOUXNYUVdITTRQdlBhVUFQNG55QmFHTTlFYlB1ZjZmYWZMV2g1OUtNUFVVYWVBWExnNUY5QVN0QUdiSFN4TEpnTWJjSmE1c2FhV1lhaDFWLWFoREphNGl5S0Qza0d6Mk9OZklRTWY4OGFESkJwcWw4WHdhQnBZYkFCeXRGQUtiNHJTakxvOE5qNUp5eUVCMGEwXS0tPjwvZz48L3N2Zz4=;" vertex="1" parent="1">
            <mxGeometry x="-86" y="-55" width="432" height="230" as="geometry" />
          </mxCell>
        </UserObject>
        <UserObject label="" plantUmlData="{&#xa;  &quot;data&quot;: &quot;class StoreService {\n  +findAllStores(): StoreWithId[]\n  +findStoreById(id: string): StoreWithId | null\n  +findStoreByName(name: string): StoreWithId | null\n  +createStore(info: Store): StoreWithId\n}\nStoreService ..&gt; Store&quot;,&#xa;  &quot;format&quot;: &quot;svg&quot;&#xa;}" id="Pc-rXo_lRMbQFWNjcUTP-150">
          <mxCell style="shape=image;noLabel=1;verticalAlign=top;aspect=fixed;imageAspect=0;image=data:image/svg+xml,PHN2ZyB4bWxucz0iaHR0cDovL3d3dy53My5vcmcvMjAwMC9zdmciIHhtbG5zOnhsaW5rPSJodHRwOi8vd3d3LnczLm9yZy8xOTk5L3hsaW5rIiBjb250ZW50U3R5bGVUeXBlPSJ0ZXh0L2NzcyIgZGF0YS1kaWFncmFtLXR5cGU9IkNMQVNTIiBoZWlnaHQ9IjIzMHB4IiBwcmVzZXJ2ZUFzcGVjdFJhdGlvPSJub25lIiBzdHlsZT0id2lkdGg6MzgzcHg7aGVpZ2h0OjIzMHB4O2JhY2tncm91bmQ6I0ZGRkZGRjsiIHZlcnNpb249IjEuMSIgdmlld0JveD0iMCAwIDM4MyAyMzAiIHdpZHRoPSIzODNweCIgem9vbUFuZFBhbj0ibWFnbmlmeSI+PGRlZnMvPjxnPjwhLS1jbGFzcyBTdG9yZVNlcnZpY2UtLT48ZyBjbGFzcz0iZW50aXR5IiBkYXRhLWVudGl0eT0iU3RvcmVTZXJ2aWNlIiBkYXRhLXNvdXJjZS1saW5lPSIxIiBkYXRhLXVpZD0iZW50MDAwMiIgaWQ9ImVudGl0eV9TdG9yZVNlcnZpY2UiPjxyZWN0IGZpbGw9IiNGMUYxRjEiIGhlaWdodD0iMTA3LjkzNzUiIHJ4PSIyLjUiIHJ5PSIyLjUiIHN0eWxlPSJzdHJva2U6IzE4MTgxODtzdHJva2Utd2lkdGg6MC41OyIgd2lkdGg9IjM2OSIgeD0iNyIgeT0iNyIvPjxlbGxpcHNlIGN4PSIxNDUuMjUiIGN5PSIyMyIgZmlsbD0iI0FERDFCMiIgcng9IjExIiByeT0iMTEiIHN0eWxlPSJzdHJva2U6IzE4MTgxODtzdHJva2Utd2lkdGg6MTsiLz48cGF0aCBkPSJNMTQyLjg3NSwyNy4yNSBMMTQyLjg3NSwyOSBMMTQ3LjgxMjUsMjkgTDE0Ny44MTI1LDI3LjI1IEwxNDIuODc1LDI3LjI1IFogTTE0My41NjI1LDI3LjkzNzUgUTE0My41NjI1LDI3LjkzNzUgMTQzLjU2MjUsMTguNzUgTDE0MS44MTI1LDE4Ljc1IFExNDEuODEyNSwxOC43NSAxNDEuODEyNSwyNy45Mzc1IEwxNDMuNTYyNSwyNy45Mzc1IFogTTE0Ny4xMjUsMjcuOTM3NSBMMTQ4Ljg3NSwyNy45Mzc1IFExNDguODc1LDI3LjkzNzUgMTQ4Ljg3NSwyNS4xMjUgTDE0Ny4xMjUsMjUuMTI1IFExNDcuMTI1LDI1LjEyNSAxNDcuMTI1LDI3LjkzNzUgWiBNMTQ3LjEyNSwxOC43NSBRMTQ3LjEyNSwxOC43NSAxNDcuMTI1LDIxLjU2MjUgTDE0OC44NzUsMjEuNTYyNSBRMTQ4Ljg3NSwyMS41NjI1IDE0OC44NzUsMTguNzUgTDE0Ny4xMjUsMTguNzUgWiBNMTQyLjg3NSwxOS40Mzc1IEwxNDcuODEyNSwxOS40Mzc1IEwxNDcuODEyNSwxNy42ODc1IEwxNDIuODc1LDE3LjY4NzUgTDE0Mi44NzUsMTkuNDM3NSBaICIgZmlsbD0iIzAwMDAwMCIvPjx0ZXh0IGZpbGw9IiMwMDAwMDAiIGZvbnQtZmFtaWx5PSJzYW5zLXNlcmlmIiBmb250LXNpemU9IjE0IiBsZW5ndGhBZGp1c3Q9InNwYWNpbmciIHRleHRMZW5ndGg9Ijg0IiB4PSIxNjUuNzUiIHk9IjI4Ljc0MjIiPlN0b3JlU2VydmljZTwvdGV4dD48bGluZSBzdHlsZT0ic3Ryb2tlOiMxODE4MTg7c3Ryb2tlLXdpZHRoOjAuNTsiIHgxPSI4IiB4Mj0iMzc1IiB5MT0iMzkiIHkyPSIzOSIvPjxsaW5lIHN0eWxlPSJzdHJva2U6IzE4MTgxODtzdHJva2Utd2lkdGg6MC41OyIgeDE9IjgiIHgyPSIzNzUiIHkxPSI0NyIgeTI9IjQ3Ii8+PGVsbGlwc2UgY3g9IjE4IiBjeT0iNTkuOTkyMiIgZmlsbD0iIzg0QkU4NCIgcng9IjMiIHJ5PSIzIiBzdHlsZT0ic3Ryb2tlOiMwMzgwNDg7c3Ryb2tlLXdpZHRoOjE7Ii8+PHRleHQgZmlsbD0iIzAwMDAwMCIgZm9udC1mYW1pbHk9InNhbnMtc2VyaWYiIGZvbnQtc2l6ZT0iMTQiIGxlbmd0aEFkanVzdD0ic3BhY2luZyIgdGV4dExlbmd0aD0iMjEwIiB4PSIyNyIgeT0iNjQuMjM0NCI+ZmluZEFsbFN0b3JlcygpOiBTdG9yZVdpdGhJZFtdPC90ZXh0PjxlbGxpcHNlIGN4PSIxOCIgY3k9Ijc0Ljk3NjYiIGZpbGw9IiM4NEJFODQiIHJ4PSIzIiByeT0iMyIgc3R5bGU9InN0cm9rZTojMDM4MDQ4O3N0cm9rZS13aWR0aDoxOyIvPjx0ZXh0IGZpbGw9IiMwMDAwMDAiIGZvbnQtZmFtaWx5PSJzYW5zLXNlcmlmIiBmb250LXNpemU9IjE0IiBsZW5ndGhBZGp1c3Q9InNwYWNpbmciIHRleHRMZW5ndGg9IjMxNSIgeD0iMjciIHk9Ijc5LjIxODgiPmZpbmRTdG9yZUJ5SWQoaWQ6IHN0cmluZyk6IFN0b3JlV2l0aElkIHwgbnVsbDwvdGV4dD48ZWxsaXBzZSBjeD0iMTgiIGN5PSI4OS45NjA5IiBmaWxsPSIjODRCRTg0IiByeD0iMyIgcnk9IjMiIHN0eWxlPSJzdHJva2U6IzAzODA0ODtzdHJva2Utd2lkdGg6MTsiLz48dGV4dCBmaWxsPSIjMDAwMDAwIiBmb250LWZhbWlseT0ic2Fucy1zZXJpZiIgZm9udC1zaXplPSIxNCIgbGVuZ3RoQWRqdXN0PSJzcGFjaW5nIiB0ZXh0TGVuZ3RoPSIzNDMiIHg9IjI3IiB5PSI5NC4yMDMxIj5maW5kU3RvcmVCeU5hbWUobmFtZTogc3RyaW5nKTogU3RvcmVXaXRoSWQgfCBudWxsPC90ZXh0PjxlbGxpcHNlIGN4PSIxOCIgY3k9IjEwNC45NDUzIiBmaWxsPSIjODRCRTg0IiByeD0iMyIgcnk9IjMiIHN0eWxlPSJzdHJva2U6IzAzODA0ODtzdHJva2Utd2lkdGg6MTsiLz48dGV4dCBmaWxsPSIjMDAwMDAwIiBmb250LWZhbWlseT0ic2Fucy1zZXJpZiIgZm9udC1zaXplPSIxNCIgbGVuZ3RoQWRqdXN0PSJzcGFjaW5nIiB0ZXh0TGVuZ3RoPSIyNTkiIHg9IjI3IiB5PSIxMDkuMTg3NSI+Y3JlYXRlU3RvcmUoaW5mbzogU3RvcmUpOiBTdG9yZVdpdGhJZDwvdGV4dD48L2c+PCEtLWNsYXNzIFN0b3JlLS0+PGcgY2xhc3M9ImVudGl0eSIgZGF0YS1lbnRpdHk9IlN0b3JlIiBkYXRhLXNvdXJjZS1saW5lPSI3IiBkYXRhLXVpZD0iZW50MDAwMyIgaWQ9ImVudGl0eV9TdG9yZSI+PHJlY3QgZmlsbD0iI0YxRjFGMSIgaGVpZ2h0PSI0OCIgcng9IjIuNSIgcnk9IjIuNSIgc3R5bGU9InN0cm9rZTojMTgxODE4O3N0cm9rZS13aWR0aDowLjU7IiB3aWR0aD0iNjciIHg9IjE1OCIgeT0iMTc1Ii8+PGVsbGlwc2UgY3g9IjE3MyIgY3k9IjE5MSIgZmlsbD0iI0FERDFCMiIgcng9IjExIiByeT0iMTEiIHN0eWxlPSJzdHJva2U6IzE4MTgxODtzdHJva2Utd2lkdGg6MTsiLz48cGF0aCBkPSJNMTcwLjYyNSwxOTUuMjUgTDE3MC42MjUsMTk3IEwxNzUuNTYyNSwxOTcgTDE3NS41NjI1LDE5NS4yNSBMMTcwLjYyNSwxOTUuMjUgWiBNMTcxLjMxMjUsMTk1LjkzNzUgUTE3MS4zMTI1LDE5NS45Mzc1IDE3MS4zMTI1LDE4Ni43NSBMMTY5LjU2MjUsMTg2Ljc1IFExNjkuNTYyNSwxODYuNzUgMTY5LjU2MjUsMTk1LjkzNzUgTDE3MS4zMTI1LDE5NS45Mzc1IFogTTE3NC44NzUsMTk1LjkzNzUgTDE3Ni42MjUsMTk1LjkzNzUgUTE3Ni42MjUsMTk1LjkzNzUgMTc2LjYyNSwxOTMuMTI1IEwxNzQuODc1LDE5My4xMjUgUTE3NC44NzUsMTkzLjEyNSAxNzQuODc1LDE5NS45Mzc1IFogTTE3NC44NzUsMTg2Ljc1IFExNzQuODc1LDE4Ni43NSAxNzQuODc1LDE4OS41NjI1IEwxNzYuNjI1LDE4OS41NjI1IFExNzYuNjI1LDE4OS41NjI1IDE3Ni42MjUsMTg2Ljc1IEwxNzQuODc1LDE4Ni43NSBaIE0xNzAuNjI1LDE4Ny40Mzc1IEwxNzUuNTYyNSwxODcuNDM3NSBMMTc1LjU2MjUsMTg1LjY4NzUgTDE3MC42MjUsMTg1LjY4NzUgTDE3MC42MjUsMTg3LjQzNzUgWiAiIGZpbGw9IiMwMDAwMDAiLz48dGV4dCBmaWxsPSIjMDAwMDAwIiBmb250LWZhbWlseT0ic2Fucy1zZXJpZiIgZm9udC1zaXplPSIxNCIgbGVuZ3RoQWRqdXN0PSJzcGFjaW5nIiB0ZXh0TGVuZ3RoPSIzNSIgeD0iMTg3IiB5PSIxOTYuNzQyMiI+U3RvcmU8L3RleHQ+PGxpbmUgc3R5bGU9InN0cm9rZTojMTgxODE4O3N0cm9rZS13aWR0aDowLjU7IiB4MT0iMTU5IiB4Mj0iMjI0IiB5MT0iMjA3IiB5Mj0iMjA3Ii8+PGxpbmUgc3R5bGU9InN0cm9rZTojMTgxODE4O3N0cm9rZS13aWR0aDowLjU7IiB4MT0iMTU5IiB4Mj0iMjI0IiB5MT0iMjE1IiB5Mj0iMjE1Ii8+PC9nPjwhLS1saW5rIFN0b3JlU2VydmljZSB0byBTdG9yZS0tPjxnIGNsYXNzPSJsaW5rIiBkYXRhLWVudGl0eS0xPSJTdG9yZVNlcnZpY2UiIGRhdGEtZW50aXR5LTI9IlN0b3JlIiBkYXRhLXNvdXJjZS1saW5lPSI3IiBkYXRhLXVpZD0ibG5rNCIgaWQ9ImxpbmtfU3RvcmVTZXJ2aWNlX1N0b3JlIj48cGF0aCBjb2RlTGluZT0iNyIgZD0iTTE5MS41LDExNS4zNiBDMTkxLjUsMTM2LjA1IDE5MS41LDE1Mi42MyAxOTEuNSwxNjguOTYiIGZpbGw9Im5vbmUiIGlkPSJTdG9yZVNlcnZpY2UtdG8tU3RvcmUiIHN0eWxlPSJzdHJva2U6IzE4MTgxODtzdHJva2Utd2lkdGg6MTtzdHJva2UtZGFzaGFycmF5OjcuMCw3LjA7Ii8+PHBvbHlnb24gZmlsbD0iIzE4MTgxOCIgcG9pbnRzPSIxOTEuNSwxNzQuOTYsMTk1LjUsMTY1Ljk2LDE5MS41LDE2OS45NiwxODcuNSwxNjUuOTYsMTkxLjUsMTc0Ljk2IiBzdHlsZT0ic3Ryb2tlOiMxODE4MTg7c3Ryb2tlLXdpZHRoOjE7Ii8+PC9nPjwhLS1TUkM9W0l5djlCMnZNMjJ4OUJxZURKWXFnb3FuRUxRWmNLYjNHSmlsQ0l0N0NvRzVCNTZqZU1hNktYNlVNUDdZY0hDVjJMODA1ZEllektwR29Ld21LWWFrQUNsRklLVEtncjJaYWJVUmFlNmRtSXluRHJTVzM0V0dyOUhVYjlmUWFXa0txQ2xGSXlnN2dLRExwck5BWC00MUZwbXVZM0cwMF0tLT48L2c+PC9zdmc+;" vertex="1" parent="1">
            <mxGeometry x="-80" y="630" width="383" height="230" as="geometry" />
          </mxCell>
        </UserObject>
        <mxCell id="Pc-rXo_lRMbQFWNjcUTP-151" value="&lt;font style=&quot;font-size: 40px;&quot;&gt;Services&lt;/font&gt;" style="text;html=1;align=center;verticalAlign=middle;whiteSpace=wrap;rounded=0;" vertex="1" parent="1">
          <mxGeometry x="-60" y="-140" width="380" height="80" as="geometry" />
        </mxCell>
        <mxCell id="Pc-rXo_lRMbQFWNjcUTP-152" value="&lt;font style=&quot;font-size: 40px;&quot;&gt;Services&lt;/font&gt;" style="text;html=1;align=center;verticalAlign=middle;whiteSpace=wrap;rounded=0;" vertex="1" parent="1">
          <mxGeometry x="-78.5" y="550" width="380" height="80" as="geometry" />
        </mxCell>
      </root>
    </mxGraphModel>
  </diagram>
</mxfile>
